<svg width="329" height="57" viewBox="0 0 329 57" fill="none" xmlns="http://www.w3.org/2000/svg">
<path d="M0.164062 20V15.957H1.86328L5.36719 5.38672H2.84766V1.34375H14.4258L18.8086 15.957H20.5078V20H9.99609V15.957H11.9297L11.3906 13.9062H6.5625L5.95312 15.957H7.88672V20H0.164062ZM7.42969 10.9766H10.6172L9.12891 5.28125L7.42969 10.9766ZM21.6445 20V16.4844H23.3438V11.1055H21.6445V7.90625L28.8516 7.21484V8.75C29.3359 8.25781 29.9375 7.87891 30.6562 7.61328C31.375 7.34766 32.1406 7.21484 32.9531 7.21484C34.5938 7.21484 35.7344 7.78516 36.375 8.92578C36.9766 8.37891 37.6602 7.95703 38.4258 7.66016C39.1992 7.36328 39.9727 7.21484 40.7461 7.21484C42.2461 7.21484 43.332 7.60938 44.0039 8.39844C44.6836 9.1875 45.0234 10.3828 45.0234 11.9844V16.4844H46.6641V20H39.3984V11.9844C39.3984 11.5469 39.3008 11.2305 39.1055 11.0352C38.918 10.832 38.6797 10.7305 38.3906 10.7305C38.1562 10.7305 37.9102 10.8008 37.6523 10.9414C37.3945 11.082 37.1758 11.2852 36.9961 11.5508V16.4844H38.0508V20H31.3711V11.9844C31.3711 11.5469 31.2734 11.2305 31.0781 11.0352C30.8906 10.832 30.6523 10.7305 30.3633 10.7305C30.1289 10.7305 29.8828 10.8008 29.625 10.9414C29.3672 11.082 29.1484 11.2852 28.9688 11.5508V16.4844H30.0234V20H21.6445ZM52.1602 20.2109C51.3555 20.2109 50.6367 20.0508 50.0039 19.7305C49.3789 19.4023 48.8867 18.9531 48.5273 18.3828C48.1758 17.8125 48 17.1562 48 16.4141C48 15.2578 48.4453 14.3359 49.3359 13.6484C50.2266 12.9609 51.4141 12.6172 52.8984 12.6172C53.4141 12.6172 53.9062 12.6484 54.375 12.7109C54.8438 12.7734 55.3203 12.8789 55.8047 13.0273V12.7695C55.8047 12.0586 55.5859 11.543 55.1484 11.2227C54.7188 10.9023 54.0273 10.7422 53.0742 10.7422C52.3867 10.7422 51.6914 10.832 50.9883 11.0117C50.2852 11.1914 49.6445 11.4414 49.0664 11.7617L48.75 11.6211V8.19922C49.5703 7.87891 50.5 7.63672 51.5391 7.47266C52.5859 7.30859 53.6367 7.22656 54.6914 7.22656C57.0273 7.22656 58.7344 7.61719 59.8125 8.39844C60.8906 9.17969 61.4297 10.4336 61.4297 12.1602V16.4844H62.9531V20H56.5547L55.9805 18.1602C55.6133 18.8008 55.0898 19.3047 54.4102 19.6719C53.7383 20.0312 52.9883 20.2109 52.1602 20.2109ZM54.6094 17.2109C54.8203 17.2109 55.0391 17.1758 55.2656 17.1055C55.5 17.0273 55.6797 16.9258 55.8047 16.8008V14.8438C55.6094 14.7578 55.4102 14.6992 55.207 14.668C55.0117 14.6367 54.8281 14.6211 54.6562 14.6211C54.2578 14.6211 53.9219 14.7383 53.6484 14.9727C53.3828 15.207 53.25 15.5195 53.25 15.9102C53.25 16.3086 53.375 16.625 53.625 16.8594C53.875 17.0938 54.2031 17.2109 54.6094 17.2109ZM64.6289 20V16.9531L70.2539 10.1914H67.4414L67.207 12.125H64.6289V7.4375H77.2266V10.4844L71.7188 17.2461H74.6484L74.8828 14.8438H77.4609V20H64.6289ZM78.9961 20V16.4844H80.8125V11.1055H78.9961V7.90625L86.4375 7.21484V16.4844H88.2539V20H78.9961ZM83.625 6.42969C82.6016 6.42969 81.7812 6.18359 81.1641 5.69141C80.5547 5.19922 80.25 4.54688 80.25 3.73438C80.25 2.92188 80.5547 2.28125 81.1641 1.8125C81.7734 1.33594 82.5977 1.09766 83.6367 1.09766C84.6992 1.09766 85.5234 1.32813 86.1094 1.78906C86.7031 2.25 87 2.89844 87 3.73438C87 4.5625 86.6953 5.21875 86.0859 5.70312C85.4844 6.1875 84.6641 6.42969 83.625 6.42969ZM89.5195 20V16.4844H91.2188V11.1055H89.5195V7.90625L96.7266 7.21484V8.80859C97.2109 8.30078 97.8164 7.91016 98.543 7.63672C99.2695 7.35547 100.051 7.21484 100.887 7.21484C102.301 7.21484 103.336 7.61719 103.992 8.42188C104.656 9.21875 104.988 10.4219 104.988 12.0312V16.4844H106.629V20H99.3633V12.0312C99.3633 11.5781 99.2656 11.25 99.0703 11.0469C98.875 10.8359 98.6172 10.7305 98.2969 10.7305C98.0312 10.7305 97.7656 10.8086 97.5 10.9648C97.2422 11.1211 97.0234 11.3359 96.8438 11.6094V16.4844H97.8984V20H89.5195ZM117.938 16.7773C119.461 16.7773 120.609 17.0859 121.383 17.7031C122.164 18.3203 122.555 19.1992 122.555 20.3398C122.555 21.332 122.215 22.168 121.535 22.8477C120.863 23.5273 119.922 24.0391 118.711 24.3828C117.5 24.7266 116.086 24.8984 114.469 24.8984C112.867 24.8984 111.562 24.7539 110.555 24.4648C109.555 24.1836 108.82 23.8047 108.352 23.3281C107.891 22.8594 107.66 22.3477 107.66 21.793C107.66 21.3711 107.816 20.9883 108.129 20.6445C108.449 20.3008 108.855 20.0508 109.348 19.8945C108.785 19.4414 108.504 18.8477 108.504 18.1133C108.504 17.4648 108.734 16.9219 109.195 16.4844C109.664 16.0391 110.328 15.7109 111.188 15.5C110.141 15.1953 109.27 14.7188 108.574 14.0703C107.887 13.4219 107.543 12.5977 107.543 11.5977C107.543 10.2852 108.148 9.23047 109.359 8.43359C110.57 7.62891 112.34 7.22656 114.668 7.22656C115.895 7.22656 116.992 7.38281 117.961 7.69531L122.836 7.21484V10.8477H121.359C121.414 11.0898 121.441 11.3398 121.441 11.5977C121.441 12.9102 120.816 13.9648 119.566 14.7617C118.316 15.5508 116.535 15.9453 114.223 15.9453C113.66 15.9453 113.379 16.082 113.379 16.3555C113.379 16.6367 113.66 16.7773 114.223 16.7773H117.938ZM114.668 9.71094C114.191 9.70312 113.789 9.86719 113.461 10.2031C113.133 10.5312 112.969 10.9883 112.969 11.5742C112.969 12.168 113.129 12.6328 113.449 12.9688C113.777 13.3047 114.184 13.4688 114.668 13.4609C115.152 13.4531 115.555 13.2852 115.875 12.957C116.203 12.6211 116.367 12.1602 116.367 11.5742C116.367 10.9961 116.203 10.543 115.875 10.2148C115.555 9.88672 115.152 9.71875 114.668 9.71094ZM111.223 21.1367C111.223 21.6055 111.465 21.9727 111.949 22.2383C112.434 22.5117 113.156 22.6484 114.117 22.6484C115.164 22.6484 115.918 22.5273 116.379 22.2852C116.84 22.043 117.07 21.7344 117.07 21.3594C117.07 20.9688 116.789 20.7734 116.227 20.7734H112.629C112.152 20.7734 111.711 20.7422 111.305 20.6797C111.25 20.8281 111.223 20.9805 111.223 21.1367ZM259.195 52L254.766 37.3867H253.066V33.3438H263.543V37.3867H261.609L263.977 46.2461L267.703 33.3438H272.309L275.895 46.375L278.355 37.3867H276.41V33.3438H284.168V37.3867H282.469L278.039 52H271.312L268.699 43.2227L266.039 52H259.195ZM290.73 52.2109C288.41 52.2109 286.59 51.6289 285.27 50.4648C283.957 49.293 283.301 47.6719 283.301 45.6016C283.301 44.2969 283.586 43.168 284.156 42.2148C284.734 41.2617 285.539 40.5273 286.57 40.0117C287.602 39.4883 288.801 39.2266 290.168 39.2266C291.504 39.2266 292.648 39.4727 293.602 39.9648C294.555 40.4492 295.281 41.1289 295.781 42.0039C296.289 42.8711 296.543 43.875 296.543 45.0156C296.543 45.2812 296.531 45.5391 296.508 45.7891C296.484 46.0312 296.457 46.2539 296.426 46.457H288.891C289.023 47.2539 289.383 47.8281 289.969 48.1797C290.562 48.5234 291.285 48.6953 292.137 48.6953C292.855 48.6953 293.539 48.5703 294.188 48.3203C294.844 48.0625 295.398 47.7422 295.852 47.3594L296.168 47.5V50.8633C295.793 51.1211 295.309 51.3516 294.715 51.5547C294.121 51.7578 293.477 51.918 292.781 52.0352C292.094 52.1523 291.41 52.2109 290.73 52.2109ZM290.473 42.1094C289.949 42.1094 289.555 42.3125 289.289 42.7188C289.023 43.125 288.875 43.6914 288.844 44.418H292.102C292.07 43.6914 291.922 43.125 291.656 42.7188C291.398 42.3125 291.004 42.1094 290.473 42.1094ZM305.215 52.2109C302.895 52.2109 301.074 51.6289 299.754 50.4648C298.441 49.293 297.785 47.6719 297.785 45.6016C297.785 44.2969 298.07 43.168 298.641 42.2148C299.219 41.2617 300.023 40.5273 301.055 40.0117C302.086 39.4883 303.285 39.2266 304.652 39.2266C305.988 39.2266 307.133 39.4727 308.086 39.9648C309.039 40.4492 309.766 41.1289 310.266 42.0039C310.773 42.8711 311.027 43.875 311.027 45.0156C311.027 45.2812 311.016 45.5391 310.992 45.7891C310.969 46.0312 310.941 46.2539 310.91 46.457H303.375C303.508 47.2539 303.867 47.8281 304.453 48.1797C305.047 48.5234 305.77 48.6953 306.621 48.6953C307.34 48.6953 308.023 48.5703 308.672 48.3203C309.328 48.0625 309.883 47.7422 310.336 47.3594L310.652 47.5V50.8633C310.277 51.1211 309.793 51.3516 309.199 51.5547C308.605 51.7578 307.961 51.918 307.266 52.0352C306.578 52.1523 305.895 52.2109 305.215 52.2109ZM304.957 42.1094C304.434 42.1094 304.039 42.3125 303.773 42.7188C303.508 43.125 303.359 43.6914 303.328 44.418H306.586C306.555 43.6914 306.406 43.125 306.141 42.7188C305.883 42.3125 305.488 42.1094 304.957 42.1094ZM312.141 52V48.4844H313.84V37.6797H312.141V34.4805L319.465 33.7188V45.3672L322.336 42.9531H320.531V39.4375H328.453V42.9531H326.227L324.188 44.6641L326.941 48.4844H328.699V52H322.746L319.465 47.3477V52H312.141Z" fill="#807CF7"/>
<path d="M132.902 20.2109C132.098 20.2109 131.379 20.0508 130.746 19.7305C130.121 19.4023 129.629 18.9531 129.27 18.3828C128.918 17.8125 128.742 17.1562 128.742 16.4141C128.742 15.2578 129.188 14.3359 130.078 13.6484C130.969 12.9609 132.156 12.6172 133.641 12.6172C134.156 12.6172 134.648 12.6484 135.117 12.7109C135.586 12.7734 136.062 12.8789 136.547 13.0273V12.7695C136.547 12.0586 136.328 11.543 135.891 11.2227C135.461 10.9023 134.77 10.7422 133.816 10.7422C133.129 10.7422 132.434 10.832 131.73 11.0117C131.027 11.1914 130.387 11.4414 129.809 11.7617L129.492 11.6211V8.19922C130.312 7.87891 131.242 7.63672 132.281 7.47266C133.328 7.30859 134.379 7.22656 135.434 7.22656C137.77 7.22656 139.477 7.61719 140.555 8.39844C141.633 9.17969 142.172 10.4336 142.172 12.1602V16.4844H143.695V20H137.297L136.723 18.1602C136.355 18.8008 135.832 19.3047 135.152 19.6719C134.48 20.0312 133.73 20.2109 132.902 20.2109ZM135.352 17.2109C135.562 17.2109 135.781 17.1758 136.008 17.1055C136.242 17.0273 136.422 16.9258 136.547 16.8008V14.8438C136.352 14.7578 136.152 14.6992 135.949 14.668C135.754 14.6367 135.57 14.6211 135.398 14.6211C135 14.6211 134.664 14.7383 134.391 14.9727C134.125 15.207 133.992 15.5195 133.992 15.9102C133.992 16.3086 134.117 16.625 134.367 16.8594C134.617 17.0938 134.945 17.2109 135.352 17.2109ZM145.254 20V16.4844H146.953V11.1055H145.254V7.90625L152.461 7.21484V8.80859C152.945 8.30078 153.551 7.91016 154.277 7.63672C155.004 7.35547 155.785 7.21484 156.621 7.21484C158.035 7.21484 159.07 7.61719 159.727 8.42188C160.391 9.21875 160.723 10.4219 160.723 12.0312V16.4844H162.363V20H155.098V12.0312C155.098 11.5781 155 11.25 154.805 11.0469C154.609 10.8359 154.352 10.7305 154.031 10.7305C153.766 10.7305 153.5 10.8086 153.234 10.9648C152.977 11.1211 152.758 11.3359 152.578 11.6094V16.4844H153.633V20H145.254ZM169.066 20.2109C167.934 20.2109 166.957 19.9414 166.137 19.4023C165.316 18.8633 164.688 18.1055 164.25 17.1289C163.812 16.1445 163.594 15 163.594 13.6953C163.594 12.3828 163.809 11.2422 164.238 10.2734C164.668 9.30469 165.27 8.55469 166.043 8.02344C166.824 7.49219 167.734 7.22656 168.773 7.22656C170.117 7.22656 171.391 7.71484 172.594 8.69141V5.67969H170.543V2.48047L178.219 1.71875V16.4844H179.859V20H172.711V18.6875C172.227 19.1484 171.664 19.5195 171.023 19.8008C170.383 20.0742 169.73 20.2109 169.066 20.2109ZM170.883 16.707C171.18 16.707 171.484 16.6602 171.797 16.5664C172.117 16.4727 172.383 16.3516 172.594 16.2031V11.2695C172.383 11.1133 172.117 10.9844 171.797 10.8828C171.484 10.7812 171.18 10.7305 170.883 10.7305C170.336 10.7305 169.906 10.9922 169.594 11.5156C169.289 12.0391 169.137 12.7695 169.137 13.707C169.137 14.6445 169.289 15.3789 169.594 15.9102C169.906 16.4414 170.336 16.707 170.883 16.707ZM195.973 20.3398C194.488 20.3398 193.262 20.1445 192.293 19.7539C191.324 19.3555 190.551 18.8242 189.973 18.1602L189.375 20H186.152V13.7188H190.523C190.672 14.625 191.125 15.3711 191.883 15.957C192.641 16.5352 193.598 16.8242 194.754 16.8242C195.387 16.8242 195.875 16.6992 196.219 16.4492C196.562 16.1914 196.734 15.8398 196.734 15.3945C196.734 14.9102 196.543 14.543 196.16 14.293C195.777 14.043 195.27 13.8477 194.637 13.707C194.004 13.5664 193.309 13.4297 192.551 13.2969C191.793 13.1641 191.035 12.9805 190.277 12.7461C189.52 12.5117 188.824 12.168 188.191 11.7148C187.559 11.2617 187.051 10.6484 186.668 9.875C186.285 9.09375 186.094 8.09375 186.094 6.875C186.094 5.69531 186.375 4.66406 186.938 3.78125C187.508 2.89844 188.324 2.21094 189.387 1.71875C190.449 1.22656 191.723 0.980469 193.207 0.980469C194.535 0.980469 195.645 1.17187 196.535 1.55469C197.426 1.9375 198.152 2.48047 198.715 3.18359L199.312 1.34375H202.535V7.39062H198.07C197.844 6.46094 197.391 5.74609 196.711 5.24609C196.039 4.74609 195.258 4.49609 194.367 4.49609C193.734 4.49609 193.23 4.61719 192.855 4.85938C192.48 5.09375 192.293 5.44141 192.293 5.90234C192.293 6.33203 192.484 6.66016 192.867 6.88672C193.25 7.11328 193.758 7.29688 194.391 7.4375C195.023 7.57812 195.719 7.72266 196.477 7.87109C197.234 8.01953 197.992 8.22266 198.75 8.48047C199.508 8.73828 200.203 9.10156 200.836 9.57031C201.469 10.0312 201.977 10.6484 202.359 11.4219C202.742 12.1953 202.934 13.1758 202.934 14.3633C202.934 16.2227 202.316 17.6836 201.082 18.7461C199.848 19.8086 198.145 20.3398 195.973 20.3398ZM210.023 20.2227C207.133 20.2227 205.688 18.5977 205.688 15.3477V11.1055H204.047V7.90625L211.312 7.21484V15.3594C211.312 15.8359 211.418 16.1797 211.629 16.3906C211.84 16.6016 212.109 16.707 212.438 16.707C213.023 16.707 213.477 16.4062 213.797 15.8047V11.1055H212.742V7.90625L219.422 7.21484V16.4844H221.062V20H213.914V18.6289C213.445 19.1289 212.887 19.5195 212.238 19.8008C211.598 20.082 210.859 20.2227 210.023 20.2227ZM222.117 24.6641V21.1484H223.816V11.1055H222.117V7.90625L229.324 7.21484V8.73828C229.809 8.27734 230.371 7.91016 231.012 7.63672C231.652 7.35547 232.305 7.21484 232.969 7.21484C234.109 7.21484 235.086 7.48438 235.898 8.02344C236.719 8.5625 237.348 9.32031 237.785 10.2969C238.223 11.2734 238.441 12.418 238.441 13.7305C238.441 15.0352 238.227 16.1758 237.797 17.1523C237.367 18.1211 236.762 18.8711 235.98 19.4023C235.207 19.9336 234.301 20.1992 233.262 20.1992C231.918 20.1992 230.645 19.7109 229.441 18.7344V21.1484H231.141V24.6641H222.117ZM231.152 16.6953C231.707 16.6953 232.137 16.4336 232.441 15.9102C232.746 15.3867 232.898 14.6562 232.898 13.7188C232.898 12.7812 232.746 12.0469 232.441 11.5156C232.137 10.9844 231.707 10.7188 231.152 10.7188C230.863 10.7188 230.559 10.7656 230.238 10.8594C229.918 10.9453 229.652 11.0664 229.441 11.2227V16.1562C229.652 16.3047 229.918 16.4336 230.238 16.543C230.559 16.6445 230.863 16.6953 231.152 16.6953ZM247.184 20.2109C244.863 20.2109 243.043 19.6289 241.723 18.4648C240.41 17.293 239.754 15.6719 239.754 13.6016C239.754 12.2969 240.039 11.168 240.609 10.2148C241.188 9.26172 241.992 8.52734 243.023 8.01172C244.055 7.48828 245.254 7.22656 246.621 7.22656C247.957 7.22656 249.102 7.47266 250.055 7.96484C251.008 8.44922 251.734 9.12891 252.234 10.0039C252.742 10.8711 252.996 11.875 252.996 13.0156C252.996 13.2812 252.984 13.5391 252.961 13.7891C252.938 14.0312 252.91 14.2539 252.879 14.457H245.344C245.477 15.2539 245.836 15.8281 246.422 16.1797C247.016 16.5234 247.738 16.6953 248.59 16.6953C249.309 16.6953 249.992 16.5703 250.641 16.3203C251.297 16.0625 251.852 15.7422 252.305 15.3594L252.621 15.5V18.8633C252.246 19.1211 251.762 19.3516 251.168 19.5547C250.574 19.7578 249.93 19.918 249.234 20.0352C248.547 20.1523 247.863 20.2109 247.184 20.2109ZM246.926 10.1094C246.402 10.1094 246.008 10.3125 245.742 10.7188C245.477 11.125 245.328 11.6914 245.297 12.418H248.555C248.523 11.6914 248.375 11.125 248.109 10.7188C247.852 10.3125 247.457 10.1094 246.926 10.1094ZM254.496 20V16.4844H256.195V11.1055H254.496V7.90625L261.703 7.21484V9.61719C262.164 8.76562 262.801 8.14453 263.613 7.75391C264.426 7.36328 265.203 7.16797 265.945 7.16797V12.207C265.242 11.9648 264.598 11.8438 264.012 11.8438C263.621 11.8438 263.211 11.9141 262.781 12.0547C262.352 12.1875 262.031 12.3711 261.82 12.6055V16.4844H264.516V20H254.496Z" fill="#D7D7ED"/>
<path d="M10.7344 52.3398C8.10156 52.3398 6.05859 51.6758 4.60547 50.3477C3.16016 49.0195 2.4375 46.8945 2.4375 43.9727V37.3867H0.5625V33.3438H10.4648V37.3867H8.53125V43.9844C8.53125 46.4531 9.55469 47.6875 11.6016 47.6875C12.5781 47.6875 13.3047 47.3672 13.7812 46.7266C14.2656 46.0859 14.5078 45.1719 14.5078 43.9844V37.3867H12.5742V33.3438H20.2969V37.3867H18.4219V44.4414C18.4219 49.707 15.8594 52.3398 10.7344 52.3398ZM21.5039 52V48.4844H23.2031V43.1055H21.5039V39.9062L28.7109 39.2148V40.8086C29.1953 40.3008 29.8008 39.9102 30.5273 39.6367C31.2539 39.3555 32.0352 39.2148 32.8711 39.2148C34.2852 39.2148 35.3203 39.6172 35.9766 40.4219C36.6406 41.2188 36.9727 42.4219 36.9727 44.0312V48.4844H38.6133V52H31.3477V44.0312C31.3477 43.5781 31.25 43.25 31.0547 43.0469C30.8594 42.8359 30.6016 42.7305 30.2812 42.7305C30.0156 42.7305 29.75 42.8086 29.4844 42.9648C29.2266 43.1211 29.0078 43.3359 28.8281 43.6094V48.4844H29.8828V52H21.5039ZM39.9258 52V48.4844H41.7422V43.1055H39.9258V39.9062L47.3672 39.2148V48.4844H49.1836V52H39.9258ZM44.5547 38.4297C43.5312 38.4297 42.7109 38.1836 42.0938 37.6914C41.4844 37.1992 41.1797 36.5469 41.1797 35.7344C41.1797 34.9219 41.4844 34.2812 42.0938 33.8125C42.7031 33.3359 43.5273 33.0977 44.5664 33.0977C45.6289 33.0977 46.4531 33.3281 47.0391 33.7891C47.6328 34.25 47.9297 34.8984 47.9297 35.7344C47.9297 36.5625 47.625 37.2188 47.0156 37.7031C46.4141 38.1875 45.5938 38.4297 44.5547 38.4297ZM57.5508 56.6641V53.1484H59.25V50.7461C58.0469 51.7227 56.7734 52.2109 55.4297 52.2109C54.3906 52.2109 53.4805 51.9453 52.6992 51.4141C51.9258 50.8828 51.3242 50.1328 50.8945 49.1641C50.4648 48.1875 50.25 47.0469 50.25 45.7422C50.25 44.4062 50.4883 43.2539 50.9648 42.2852C51.4414 41.3086 52.125 40.5547 53.0156 40.0234C53.9062 39.4922 54.9648 39.2266 56.1914 39.2266C56.832 39.2266 57.4766 39.332 58.125 39.543C58.7812 39.7461 59.3984 40.0508 59.9766 40.457L60.4453 39.4375H64.875V53.1484H66.5742V56.6641H57.5508ZM57.5391 48.707C57.8359 48.707 58.1406 48.6562 58.4531 48.5547C58.7734 48.4453 59.0391 48.3164 59.25 48.168V43.1875C58.7969 42.8828 58.2656 42.7305 57.6562 42.7305C57.0469 42.7305 56.582 42.9961 56.2617 43.5273C55.9492 44.0586 55.793 44.793 55.793 45.7305C55.793 46.668 55.9453 47.3984 56.25 47.9219C56.5625 48.4453 56.9922 48.707 57.5391 48.707ZM73.0547 52.2227C70.1641 52.2227 68.7188 50.5977 68.7188 47.3477V43.1055H67.0781V39.9062L74.3438 39.2148V47.3594C74.3438 47.8359 74.4492 48.1797 74.6602 48.3906C74.8711 48.6016 75.1406 48.707 75.4688 48.707C76.0547 48.707 76.5078 48.4062 76.8281 47.8047V43.1055H75.7734V39.9062L82.4531 39.2148V48.4844H84.0938V52H76.9453V50.6289C76.4766 51.1289 75.918 51.5195 75.2695 51.8008C74.6289 52.082 73.8906 52.2227 73.0547 52.2227ZM92.707 52.2109C90.3867 52.2109 88.5664 51.6289 87.2461 50.4648C85.9336 49.293 85.2773 47.6719 85.2773 45.6016C85.2773 44.2969 85.5625 43.168 86.1328 42.2148C86.7109 41.2617 87.5156 40.5273 88.5469 40.0117C89.5781 39.4883 90.7773 39.2266 92.1445 39.2266C93.4805 39.2266 94.625 39.4727 95.5781 39.9648C96.5312 40.4492 97.2578 41.1289 97.7578 42.0039C98.2656 42.8711 98.5195 43.875 98.5195 45.0156C98.5195 45.2812 98.5078 45.5391 98.4844 45.7891C98.4609 46.0312 98.4336 46.2539 98.4023 46.457H90.8672C91 47.2539 91.3594 47.8281 91.9453 48.1797C92.5391 48.5234 93.2617 48.6953 94.1133 48.6953C94.832 48.6953 95.5156 48.5703 96.1641 48.3203C96.8203 48.0625 97.375 47.7422 97.8281 47.3594L98.1445 47.5V50.8633C97.7695 51.1211 97.2852 51.3516 96.6914 51.5547C96.0977 51.7578 95.4531 51.918 94.7578 52.0352C94.0703 52.1523 93.3867 52.2109 92.707 52.2109ZM92.4492 42.1094C91.9258 42.1094 91.5312 42.3125 91.2656 42.7188C91 43.125 90.8516 43.6914 90.8203 44.418H94.0781C94.0469 43.6914 93.8984 43.125 93.6328 42.7188C93.375 42.3125 92.9805 42.1094 92.4492 42.1094ZM104.25 52V47.957H105.949L109.453 37.3867H106.934V33.3438H118.512L122.895 47.957H124.594V52H114.082V47.957H116.016L115.477 45.9062H110.648L110.039 47.957H111.973V52H104.25ZM111.516 42.9766H114.703L113.215 37.2812L111.516 42.9766ZM125.73 52V48.4844H127.43V43.1055H125.73V39.9062L132.938 39.2148V41.6172C133.398 40.7656 134.035 40.1445 134.848 39.7539C135.66 39.3633 136.438 39.168 137.18 39.168V44.207C136.477 43.9648 135.832 43.8438 135.246 43.8438C134.855 43.8438 134.445 43.9141 134.016 44.0547C133.586 44.1875 133.266 44.3711 133.055 44.6055V48.4844H135.75V52H125.73ZM145.641 52.2109C143.789 52.2109 142.359 51.7891 141.352 50.9453C140.344 50.0938 139.84 48.8633 139.84 47.2539V42.9531H137.906V39.7539L139.84 39.5664V36.7539L145.465 35.5234V39.4375H148.301V42.9531H145.465V47.1367C145.465 47.6055 145.578 47.9727 145.805 48.2383C146.039 48.4961 146.391 48.625 146.859 48.625C147.133 48.625 147.363 48.6016 147.551 48.5547C147.746 48.5 147.93 48.4453 148.102 48.3906L148.418 48.5312V51.8828C147.973 51.9844 147.523 52.0625 147.07 52.1172C146.625 52.1797 146.148 52.2109 145.641 52.2109ZM161.566 52.2109C160.098 52.2109 158.828 51.9492 157.758 51.4258C156.695 50.9023 155.875 50.1562 155.297 49.1875C154.727 48.2188 154.441 47.0664 154.441 45.7305C154.441 44.3867 154.727 43.2305 155.297 42.2617C155.875 41.293 156.695 40.5469 157.758 40.0234C158.828 39.4922 160.098 39.2266 161.566 39.2266C163.035 39.2266 164.301 39.4922 165.363 40.0234C166.434 40.5469 167.254 41.293 167.824 42.2617C168.402 43.2305 168.691 44.3867 168.691 45.7305C168.691 47.0664 168.402 48.2188 167.824 49.1875C167.254 50.1562 166.434 50.9023 165.363 51.4258C164.301 51.9492 163.035 52.2109 161.566 52.2109ZM161.566 48.8008C162.621 48.8008 163.148 47.7734 163.148 45.7188C163.148 43.6641 162.621 42.6367 161.566 42.6367C160.512 42.6367 159.984 43.6641 159.984 45.7188C159.984 47.7734 160.512 48.8008 161.566 48.8008ZM170.074 52V48.4844H171.891V42.9531H169.957V39.7539L171.891 39.5664V38.6992C171.891 37.1211 172.398 35.9023 173.414 35.043C174.438 34.1758 175.902 33.7422 177.809 33.7422C178.348 33.7422 178.844 33.7695 179.297 33.8242C179.75 33.8789 180.199 33.9609 180.645 34.0703V37.4219L180.328 37.5625C180.156 37.5078 179.969 37.457 179.766 37.4102C179.57 37.3555 179.324 37.3281 179.027 37.3281C178.504 37.3281 178.121 37.4609 177.879 37.7266C177.637 37.9844 177.516 38.3477 177.516 38.8164V39.4375H180.352V42.9531H177.516V48.4844H180.352V52H170.074ZM189.105 52V47.957H192.504V37.1523H190.406L189.938 41.1016H186.07V33.3438H205.031V41.1016H201.164L200.695 37.1523H198.598V47.957H201.996V52H189.105ZM206.062 52V48.4844H207.762V37.6094H206.062V34.4102L213.387 33.7188V40.75C214.41 39.7344 215.758 39.2266 217.43 39.2266C218.844 39.2266 219.879 39.6289 220.535 40.4336C221.199 41.2305 221.531 42.4336 221.531 44.043V48.4844H223.172V52H215.906V44.043C215.906 43.5898 215.809 43.2617 215.613 43.0586C215.418 42.8477 215.16 42.7422 214.84 42.7422C214.574 42.7422 214.309 42.8203 214.043 42.9766C213.785 43.1328 213.566 43.3477 213.387 43.6211V48.4844H214.441V52H206.062ZM224.496 52V48.4844H226.312V43.1055H224.496V39.9062L231.938 39.2148V48.4844H233.754V52H224.496ZM229.125 38.4297C228.102 38.4297 227.281 38.1836 226.664 37.6914C226.055 37.1992 225.75 36.5469 225.75 35.7344C225.75 34.9219 226.055 34.2812 226.664 33.8125C227.273 33.3359 228.098 33.0977 229.137 33.0977C230.199 33.0977 231.023 33.3281 231.609 33.7891C232.203 34.25 232.5 34.8984 232.5 35.7344C232.5 36.5625 232.195 37.2188 231.586 37.7031C230.984 38.1875 230.164 38.4297 229.125 38.4297ZM242.18 52.2109C241.383 52.2109 240.609 52.1172 239.859 51.9297C239.109 51.7422 238.445 51.4727 237.867 51.1211L237.504 52H234.926V47.5938H237.926C238.105 48.2031 238.418 48.6836 238.863 49.0352C239.309 49.3867 239.793 49.5625 240.316 49.5625C241.004 49.5625 241.348 49.3047 241.348 48.7891C241.348 48.4141 241.191 48.125 240.879 47.9219C240.574 47.7188 240.176 47.5469 239.684 47.4062C239.199 47.2656 238.684 47.1133 238.137 46.9492C237.59 46.7852 237.07 46.5625 236.578 46.2812C236.094 45.9922 235.695 45.6016 235.383 45.1094C235.078 44.6094 234.926 43.957 234.926 43.1523C234.926 42.4258 235.117 41.7656 235.5 41.1719C235.891 40.5781 236.477 40.1055 237.258 39.7539C238.047 39.3945 239.035 39.2148 240.223 39.2148C240.988 39.2148 241.695 39.2969 242.344 39.4609C243 39.6172 243.613 39.8711 244.184 40.2227L244.465 39.4375H247.043V43.4688H244.043C243.84 42.875 243.547 42.4414 243.164 42.168C242.789 41.8867 242.383 41.7461 241.945 41.7461C241.18 41.7461 240.797 41.9805 240.797 42.4492C240.797 42.7773 240.953 43.0391 241.266 43.2344C241.586 43.4219 241.992 43.5859 242.484 43.7266C242.984 43.8672 243.512 44.0273 244.066 44.207C244.621 44.3867 245.145 44.6289 245.637 44.9336C246.137 45.2383 246.543 45.6445 246.855 46.1523C247.176 46.6602 247.336 47.3203 247.336 48.1328C247.336 49.375 246.887 50.3672 245.988 51.1094C245.098 51.8438 243.828 52.2109 242.18 52.2109Z" fill="#D7D7ED"/>
</svg>
