<svg width="450" height="87" viewBox="0 0 450 87" fill="none" xmlns="http://www.w3.org/2000/svg">
<path d="M29.6406 33.9531L21.0391 34C20.8828 34 20.8047 33.9219 20.8047 33.7656L20.8984 0.789062C20.8984 0.664063 20.9609 0.601562 21.0859 0.601562L30.0625 0.554688C31.8438 0.507812 33.4531 0.914062 34.8906 1.77344C36.3438 2.63281 37.5 3.79687 38.3594 5.26562C39.2344 6.71875 39.6719 8.32813 39.6719 10.0938V23.875C39.6719 25.7188 39.2266 27.4062 38.3359 28.9375C37.4297 30.4531 36.2266 31.6641 34.7266 32.5703C33.2266 33.4609 31.5312 33.9219 29.6406 33.9531ZM30.0625 6.29688L26.7109 6.34375L26.6641 28.0938H29.6406C30.8281 28.0938 31.8281 27.6797 32.6406 26.8516C33.4531 26.0234 33.8594 25.0312 33.8594 23.875V10.0469C33.8594 9.03125 33.4844 8.14844 32.7344 7.39844C31.9844 6.63281 31.0938 6.26563 30.0625 6.29688ZM49.1172 34H43.6797C43.5234 34 43.4453 33.9219 43.4453 33.7656L43.4922 0.789062C43.4922 0.664063 43.5547 0.601562 43.6797 0.601562H49.0703C49.1953 0.601562 49.2578 0.664063 49.2578 0.789062L49.3047 33.7656C49.3047 33.9219 49.2422 34 49.1172 34ZM61.6797 34.4688C59.9766 34.4688 58.4062 34.0312 56.9688 33.1562C55.5469 32.2812 54.4062 31.1172 53.5469 29.6641C52.7031 28.1953 52.2812 26.5859 52.2812 24.8359V22.6328C52.2812 22.4609 52.3594 22.375 52.5156 22.375H57.9062C58.0312 22.375 58.0938 22.4609 58.0938 22.6328V24.8359C58.0938 25.8828 58.4453 26.7891 59.1484 27.5547C59.8516 28.3047 60.6953 28.6797 61.6797 28.6797C62.6797 28.6797 63.5312 28.2969 64.2344 27.5312C64.9375 26.75 65.2891 25.8516 65.2891 24.8359C65.2891 23.6641 64.5234 22.6406 62.9922 21.7656C62.7422 21.6094 62.4141 21.4219 62.0078 21.2031C61.6172 20.9688 61.1484 20.7031 60.6016 20.4062C60.0547 20.1094 59.5234 19.8203 59.0078 19.5391C58.4922 19.2422 57.9922 18.9609 57.5078 18.6953C55.7578 17.6641 54.4531 16.375 53.5938 14.8281C52.75 13.2656 52.3281 11.5156 52.3281 9.57812C52.3281 7.79688 52.7656 6.1875 53.6406 4.75C54.5156 3.32812 55.6562 2.20312 57.0625 1.375C58.4844 0.53125 60.0234 0.109375 61.6797 0.109375C63.3828 0.109375 64.9453 0.53125 66.3672 1.375C67.7891 2.23438 68.9219 3.375 69.7656 4.79688C70.625 6.21875 71.0547 7.8125 71.0547 9.57812V13.5156C71.0547 13.6406 70.9922 13.7031 70.8672 13.7031H65.4766C65.3516 13.7031 65.2891 13.6406 65.2891 13.5156L65.2422 9.57812C65.2422 8.45312 64.8906 7.53906 64.1875 6.83594C63.4844 6.13281 62.6484 5.78125 61.6797 5.78125C60.6953 5.78125 59.8516 6.15625 59.1484 6.90625C58.4453 7.65625 58.0938 8.54688 58.0938 9.57812C58.0938 10.625 58.3125 11.5 58.75 12.2031C59.2031 12.9062 60.0234 13.5781 61.2109 14.2188C61.3359 14.2812 61.625 14.4375 62.0781 14.6875C62.5312 14.9375 63.0312 15.2188 63.5781 15.5312C64.1406 15.8281 64.6484 16.1016 65.1016 16.3516C65.5547 16.5859 65.8281 16.7266 65.9219 16.7734C67.5156 17.6641 68.7734 18.7578 69.6953 20.0547C70.6328 21.3516 71.1016 22.9453 71.1016 24.8359C71.1016 26.6641 70.6797 28.3047 69.8359 29.7578C68.9766 31.2109 67.8359 32.3594 66.4141 33.2031C64.9922 34.0469 63.4141 34.4688 61.6797 34.4688ZM83.2656 34.4688C81.5312 34.4688 79.9453 34.0312 78.5078 33.1562C77.0859 32.2812 75.9531 31.1094 75.1094 29.6406C74.2812 28.1562 73.8672 26.5078 73.8672 24.6953L73.9141 9.71875C73.9141 7.9375 74.3203 6.32812 75.1328 4.89062C75.9453 3.4375 77.0625 2.27344 78.4844 1.39844C79.9219 0.507812 81.5156 0.0625 83.2656 0.0625C85.0469 0.0625 86.6328 0.492187 88.0234 1.35156C89.4297 2.21094 90.5469 3.375 91.375 4.84375C92.2188 6.29688 92.6406 7.92187 92.6406 9.71875V11.9219C92.6406 12.0469 92.5781 12.1094 92.4531 12.1094H87.0625C86.9375 12.1094 86.875 12.0469 86.875 11.9219V9.71875C86.875 8.65625 86.5312 7.74219 85.8438 6.97656C85.1562 6.21094 84.2969 5.82812 83.2656 5.82812C82.125 5.82812 81.25 6.21875 80.6406 7C80.0312 7.78125 79.7266 8.6875 79.7266 9.71875V24.6953C79.7266 25.8672 80.0703 26.8281 80.7578 27.5781C81.4453 28.3125 82.2812 28.6797 83.2656 28.6797C84.2969 28.6797 85.1562 28.2734 85.8438 27.4609C86.5312 26.6328 86.875 25.7109 86.875 24.6953V22.4688C86.875 22.3438 86.9375 22.2812 87.0625 22.2812H92.5C92.625 22.2812 92.6875 22.3438 92.6875 22.4688V24.6953C92.6875 26.4922 92.2656 28.1328 91.4219 29.6172C90.5625 31.0859 89.4297 32.2656 88.0234 33.1562C86.6172 34.0312 85.0312 34.4688 83.2656 34.4688ZM105.062 34.4688C103.359 34.4688 101.789 34.0312 100.352 33.1562C98.9297 32.2812 97.7812 31.1172 96.9062 29.6641C96.0469 28.1953 95.6172 26.5859 95.6172 24.8359L95.6641 9.625C95.6641 7.84375 96.0938 6.24219 96.9531 4.82031C97.7969 3.38281 98.9375 2.23438 100.375 1.375C101.812 0.5 103.375 0.0625 105.062 0.0625C106.812 0.0625 108.383 0.492187 109.773 1.35156C111.18 2.21094 112.305 3.36719 113.148 4.82031C114.008 6.25781 114.438 7.85938 114.438 9.625L114.484 24.8359C114.484 26.5859 114.062 28.1875 113.219 29.6406C112.359 31.1094 111.219 32.2812 109.797 33.1562C108.375 34.0312 106.797 34.4688 105.062 34.4688ZM105.062 28.6797C106.031 28.6797 106.875 28.2891 107.594 27.5078C108.312 26.7109 108.672 25.8203 108.672 24.8359L108.625 9.625C108.625 8.5625 108.289 7.66406 107.617 6.92969C106.945 6.19531 106.094 5.82812 105.062 5.82812C104.078 5.82812 103.234 6.1875 102.531 6.90625C101.828 7.625 101.477 8.53125 101.477 9.625V24.8359C101.477 25.8828 101.828 26.7891 102.531 27.5547C103.234 28.3047 104.078 28.6797 105.062 28.6797ZM129.32 34H123.508C123.367 34 123.289 33.9219 123.273 33.7656L116.641 0.789062C116.609 0.664063 116.672 0.601562 116.828 0.601562H122.266C122.391 0.601562 122.469 0.664063 122.5 0.789062L126.438 22.7734L130.281 0.789062C130.312 0.664063 130.391 0.601562 130.516 0.601562H135.883C136.055 0.601562 136.117 0.664063 136.07 0.789062L129.555 33.7656C129.539 33.9219 129.461 34 129.32 34ZM154.586 34H139.07C138.945 34 138.883 33.9219 138.883 33.7656L138.93 0.789062C138.93 0.664063 138.992 0.601562 139.117 0.601562H154.539C154.664 0.601562 154.727 0.679687 154.727 0.835938V6.20312C154.727 6.32812 154.664 6.39062 154.539 6.39062H144.695V13.8906H154.539C154.664 13.8906 154.727 13.9531 154.727 14.0781L154.773 19.5156C154.773 19.6406 154.711 19.7031 154.586 19.7031H144.695V28.0938H154.586C154.711 28.0938 154.773 28.1719 154.773 28.3281V33.8125C154.773 33.9375 154.711 34 154.586 34ZM164.664 34H159.227C159.102 34 159.039 33.9219 159.039 33.7656L159.133 0.789062C159.133 0.664063 159.195 0.601562 159.32 0.601562H169.023C170.758 0.601562 172.352 1.02344 173.805 1.86719C175.258 2.71094 176.414 3.84375 177.273 5.26562C178.148 6.6875 178.586 8.29687 178.586 10.0938C178.586 11.2656 178.406 12.3281 178.047 13.2812C177.688 14.2344 177.266 15.0391 176.781 15.6953C176.312 16.3516 175.883 16.8359 175.492 17.1484C177.227 19.0703 178.094 21.3281 178.094 23.9219L178.141 33.7656C178.141 33.9219 178.062 34 177.906 34H172.469C172.344 34 172.281 33.9531 172.281 33.8594V23.9219C172.281 22.7656 171.875 21.7656 171.062 20.9219C170.25 20.0781 169.25 19.6562 168.062 19.6562H164.898L164.852 33.7656C164.852 33.9219 164.789 34 164.664 34ZM169.023 6.34375H164.898V13.8906H169.023C170.008 13.8906 170.883 13.5234 171.648 12.7891C172.43 12.0547 172.82 11.1562 172.82 10.0938C172.82 9.07812 172.445 8.20312 171.695 7.46875C170.945 6.71875 170.055 6.34375 169.023 6.34375ZM182.195 40.0469V37.0703C182.992 37.0703 183.672 36.7656 184.234 36.1562C184.797 35.5469 185.078 34.8281 185.078 34H182.383C182.258 34 182.195 33.9375 182.195 33.8125V28.4219C182.195 28.2969 182.258 28.2344 182.383 28.2344H187.82C187.945 28.2344 188.008 28.2969 188.008 28.4219V34C188.008 35.125 187.734 36.1484 187.188 37.0703C186.641 37.9922 185.93 38.7188 185.055 39.25C184.18 39.7812 183.227 40.0469 182.195 40.0469ZM213.25 34.4688C211.516 34.4688 209.93 34.0312 208.492 33.1562C207.07 32.2812 205.938 31.1094 205.094 29.6406C204.266 28.1562 203.852 26.5078 203.852 24.6953L203.898 9.71875C203.898 7.9375 204.305 6.32812 205.117 4.89062C205.93 3.4375 207.047 2.27344 208.469 1.39844C209.906 0.507812 211.5 0.0625 213.25 0.0625C215.031 0.0625 216.617 0.492187 218.008 1.35156C219.414 2.21094 220.531 3.375 221.359 4.84375C222.203 6.29688 222.625 7.92187 222.625 9.71875V11.9219C222.625 12.0469 222.562 12.1094 222.438 12.1094H217.047C216.922 12.1094 216.859 12.0469 216.859 11.9219V9.71875C216.859 8.65625 216.516 7.74219 215.828 6.97656C215.141 6.21094 214.281 5.82812 213.25 5.82812C212.109 5.82812 211.234 6.21875 210.625 7C210.016 7.78125 209.711 8.6875 209.711 9.71875V24.6953C209.711 25.8672 210.055 26.8281 210.742 27.5781C211.43 28.3125 212.266 28.6797 213.25 28.6797C214.281 28.6797 215.141 28.2734 215.828 27.4609C216.516 26.6328 216.859 25.7109 216.859 24.6953V22.4688C216.859 22.3438 216.922 22.2812 217.047 22.2812H222.484C222.609 22.2812 222.672 22.3438 222.672 22.4688V24.6953C222.672 26.4922 222.25 28.1328 221.406 29.6172C220.547 31.0859 219.414 32.2656 218.008 33.1562C216.602 34.0312 215.016 34.4688 213.25 34.4688ZM235.047 34.4688C233.344 34.4688 231.773 34.0312 230.336 33.1562C228.914 32.2812 227.766 31.1172 226.891 29.6641C226.031 28.1953 225.602 26.5859 225.602 24.8359L225.648 9.625C225.648 7.84375 226.078 6.24219 226.938 4.82031C227.781 3.38281 228.922 2.23438 230.359 1.375C231.797 0.5 233.359 0.0625 235.047 0.0625C236.797 0.0625 238.367 0.492187 239.758 1.35156C241.164 2.21094 242.289 3.36719 243.133 4.82031C243.992 6.25781 244.422 7.85938 244.422 9.625L244.469 24.8359C244.469 26.5859 244.047 28.1875 243.203 29.6406C242.344 31.1094 241.203 32.2812 239.781 33.1562C238.359 34.0312 236.781 34.4688 235.047 34.4688ZM235.047 28.6797C236.016 28.6797 236.859 28.2891 237.578 27.5078C238.297 26.7109 238.656 25.8203 238.656 24.8359L238.609 9.625C238.609 8.5625 238.273 7.66406 237.602 6.92969C236.93 6.19531 236.078 5.82812 235.047 5.82812C234.062 5.82812 233.219 6.1875 232.516 6.90625C231.812 7.625 231.461 8.53125 231.461 9.625V24.8359C231.461 25.8828 231.812 26.7891 232.516 27.5547C233.219 28.3047 234.062 28.6797 235.047 28.6797ZM263.805 34H248.289C248.164 34 248.102 33.9219 248.102 33.7656L248.148 0.835938C248.148 0.679687 248.227 0.601562 248.383 0.601562H253.727C253.883 0.601562 253.961 0.679687 253.961 0.835938L253.914 28.0938H263.805C263.961 28.0938 264.039 28.1719 264.039 28.3281V33.7656C264.039 33.9219 263.961 34 263.805 34ZM282.883 34H267.367C267.242 34 267.18 33.9219 267.18 33.7656L267.227 0.835938C267.227 0.679687 267.305 0.601562 267.461 0.601562H272.805C272.961 0.601562 273.039 0.679687 273.039 0.835938L272.992 28.0938H282.883C283.039 28.0938 283.117 28.1719 283.117 28.3281V33.7656C283.117 33.9219 283.039 34 282.883 34ZM301.961 34H286.445C286.32 34 286.258 33.9219 286.258 33.7656L286.305 0.789062C286.305 0.664063 286.367 0.601562 286.492 0.601562H301.914C302.039 0.601562 302.102 0.679687 302.102 0.835938V6.20312C302.102 6.32812 302.039 6.39062 301.914 6.39062H292.07V13.8906H301.914C302.039 13.8906 302.102 13.9531 302.102 14.0781L302.148 19.5156C302.148 19.6406 302.086 19.7031 301.961 19.7031H292.07V28.0938H301.961C302.086 28.0938 302.148 28.1719 302.148 28.3281V33.8125C302.148 33.9375 302.086 34 301.961 34ZM315.25 34.4688C313.516 34.4688 311.93 34.0312 310.492 33.1562C309.07 32.2812 307.938 31.1094 307.094 29.6406C306.266 28.1562 305.852 26.5078 305.852 24.6953L305.898 9.71875C305.898 7.9375 306.305 6.32812 307.117 4.89062C307.93 3.4375 309.047 2.27344 310.469 1.39844C311.906 0.507812 313.5 0.0625 315.25 0.0625C317.031 0.0625 318.617 0.492187 320.008 1.35156C321.414 2.21094 322.531 3.375 323.359 4.84375C324.203 6.29688 324.625 7.92187 324.625 9.71875V11.9219C324.625 12.0469 324.562 12.1094 324.438 12.1094H319.047C318.922 12.1094 318.859 12.0469 318.859 11.9219V9.71875C318.859 8.65625 318.516 7.74219 317.828 6.97656C317.141 6.21094 316.281 5.82812 315.25 5.82812C314.109 5.82812 313.234 6.21875 312.625 7C312.016 7.78125 311.711 8.6875 311.711 9.71875V24.6953C311.711 25.8672 312.055 26.8281 312.742 27.5781C313.43 28.3125 314.266 28.6797 315.25 28.6797C316.281 28.6797 317.141 28.2734 317.828 27.4609C318.516 26.6328 318.859 25.7109 318.859 24.6953V22.4688C318.859 22.3438 318.922 22.2812 319.047 22.2812H324.484C324.609 22.2812 324.672 22.3438 324.672 22.4688V24.6953C324.672 26.4922 324.25 28.1328 323.406 29.6172C322.547 31.0859 321.414 32.2656 320.008 33.1562C318.602 34.0312 317.016 34.4688 315.25 34.4688ZM338.406 34H332.992C332.852 34 332.781 33.9219 332.781 33.7656V6.39062H326.547C326.391 6.39062 326.312 6.3125 326.312 6.15625L326.359 0.789062C326.359 0.664063 326.422 0.601562 326.547 0.601562H344.781C344.953 0.601562 345.039 0.664063 345.039 0.789062V6.15625C345.039 6.3125 344.977 6.39062 344.852 6.39062H338.547L338.594 33.7656C338.594 33.9219 338.531 34 338.406 34ZM347.383 40.0469V37.0703C348.18 37.0703 348.859 36.7656 349.422 36.1562C349.984 35.5469 350.266 34.8281 350.266 34H347.57C347.445 34 347.383 33.9375 347.383 33.8125V28.4219C347.383 28.2969 347.445 28.2344 347.57 28.2344H353.008C353.133 28.2344 353.195 28.2969 353.195 28.4219V34C353.195 35.125 352.922 36.1484 352.375 37.0703C351.828 37.9922 351.117 38.7188 350.242 39.25C349.367 39.7812 348.414 40.0469 347.383 40.0469ZM367.984 33.7656L373.938 0.789062C373.969 0.664063 374.047 0.601562 374.172 0.601562H381.133C381.258 0.601562 381.336 0.664063 381.367 0.789062L387.086 33.7656C387.102 33.9219 387.039 34 386.898 34H381.578C381.422 34 381.336 33.9219 381.32 33.7656L380.805 30.25H374.266L373.75 33.7656C373.734 33.9219 373.656 34 373.516 34H368.172C368.047 34 367.984 33.9219 367.984 33.7656ZM377.875 11.6406L377.594 9.85938L377.383 11.6406L375.227 25.1172H379.844L377.875 11.6406ZM395.312 34H390.508C390.258 34 390.133 33.8906 390.133 33.6719L390.086 0.976562C390.086 0.726562 390.211 0.601562 390.461 0.601562H394.797L402.906 19.5156L402.672 0.976562C402.672 0.726562 402.812 0.601562 403.094 0.601562H407.852C408.039 0.601562 408.133 0.726562 408.133 0.976562L408.18 33.7188C408.18 33.9062 408.102 34 407.945 34H403.727L395.406 16.3281L395.758 33.625C395.758 33.875 395.609 34 395.312 34ZM421.188 33.9531L412.586 34C412.43 34 412.352 33.9219 412.352 33.7656L412.445 0.789062C412.445 0.664063 412.508 0.601562 412.633 0.601562L421.609 0.554688C423.391 0.507812 425 0.914062 426.438 1.77344C427.891 2.63281 429.047 3.79687 429.906 5.26562C430.781 6.71875 431.219 8.32813 431.219 10.0938V23.875C431.219 25.7188 430.773 27.4062 429.883 28.9375C428.977 30.4531 427.773 31.6641 426.273 32.5703C424.773 33.4609 423.078 33.9219 421.188 33.9531ZM421.609 6.29688L418.258 6.34375L418.211 28.0938H421.188C422.375 28.0938 423.375 27.6797 424.188 26.8516C425 26.0234 425.406 25.0312 425.406 23.875V10.0469C425.406 9.03125 425.031 8.14844 424.281 7.39844C423.531 6.63281 422.641 6.26563 421.609 6.29688ZM10.2344 86.4688C8.53125 86.4688 6.96094 86.0312 5.52344 85.1562C4.10156 84.2812 2.96094 83.1172 2.10156 81.6641C1.25781 80.1953 0.835938 78.5859 0.835938 76.8359V74.6328C0.835938 74.4609 0.914062 74.375 1.07031 74.375H6.46094C6.58594 74.375 6.64844 74.4609 6.64844 74.6328V76.8359C6.64844 77.8828 7 78.7891 7.70312 79.5547C8.40625 80.3047 9.25 80.6797 10.2344 80.6797C11.2344 80.6797 12.0859 80.2969 12.7891 79.5312C13.4922 78.75 13.8438 77.8516 13.8438 76.8359C13.8438 75.6641 13.0781 74.6406 11.5469 73.7656C11.2969 73.6094 10.9688 73.4219 10.5625 73.2031C10.1719 72.9688 9.70312 72.7031 9.15625 72.4062C8.60938 72.1094 8.07812 71.8203 7.5625 71.5391C7.04688 71.2422 6.54688 70.9609 6.0625 70.6953C4.3125 69.6641 3.00781 68.375 2.14844 66.8281C1.30469 65.2656 0.882812 63.5156 0.882812 61.5781C0.882812 59.7969 1.32031 58.1875 2.19531 56.75C3.07031 55.3281 4.21094 54.2031 5.61719 53.375C7.03906 52.5312 8.57812 52.1094 10.2344 52.1094C11.9375 52.1094 13.5 52.5312 14.9219 53.375C16.3438 54.2344 17.4766 55.375 18.3203 56.7969C19.1797 58.2188 19.6094 59.8125 19.6094 61.5781V65.5156C19.6094 65.6406 19.5469 65.7031 19.4219 65.7031H14.0312C13.9062 65.7031 13.8438 65.6406 13.8438 65.5156L13.7969 61.5781C13.7969 60.4531 13.4453 59.5391 12.7422 58.8359C12.0391 58.1328 11.2031 57.7812 10.2344 57.7812C9.25 57.7812 8.40625 58.1562 7.70312 58.9062C7 59.6562 6.64844 60.5469 6.64844 61.5781C6.64844 62.625 6.86719 63.5 7.30469 64.2031C7.75781 64.9062 8.57812 65.5781 9.76562 66.2188C9.89062 66.2812 10.1797 66.4375 10.6328 66.6875C11.0859 66.9375 11.5859 67.2188 12.1328 67.5312C12.6953 67.8281 13.2031 68.1016 13.6562 68.3516C14.1094 68.5859 14.3828 68.7266 14.4766 68.7734C16.0703 69.6641 17.3281 70.7578 18.25 72.0547C19.1875 73.3516 19.6562 74.9453 19.6562 76.8359C19.6562 78.6641 19.2344 80.3047 18.3906 81.7578C17.5312 83.2109 16.3906 84.3594 14.9688 85.2031C13.5469 86.0469 11.9688 86.4688 10.2344 86.4688ZM38.6875 86H23.1719C23.0469 86 22.9844 85.9219 22.9844 85.7656L23.0312 52.7891C23.0312 52.6641 23.0938 52.6016 23.2188 52.6016H38.6406C38.7656 52.6016 38.8281 52.6797 38.8281 52.8359V58.2031C38.8281 58.3281 38.7656 58.3906 38.6406 58.3906H28.7969V65.8906H38.6406C38.7656 65.8906 38.8281 65.9531 38.8281 66.0781L38.875 71.5156C38.875 71.6406 38.8125 71.7031 38.6875 71.7031H28.7969V80.0938H38.6875C38.8125 80.0938 38.875 80.1719 38.875 80.3281V85.8125C38.875 85.9375 38.8125 86 38.6875 86ZM58.8438 86H43.3281C43.2031 86 43.1406 85.9219 43.1406 85.7656L43.1875 52.8359C43.1875 52.6797 43.2656 52.6016 43.4219 52.6016H48.7656C48.9219 52.6016 49 52.6797 49 52.8359L48.9531 80.0938H58.8438C59 80.0938 59.0781 80.1719 59.0781 80.3281V85.7656C59.0781 85.9219 59 86 58.8438 86ZM77.9219 86H62.4062C62.2812 86 62.2188 85.9219 62.2188 85.7656L62.2656 52.8359C62.2656 52.6797 62.3438 52.6016 62.5 52.6016H67.8438C68 52.6016 68.0781 52.6797 68.0781 52.8359L68.0312 80.0938H77.9219C78.0781 80.0938 78.1562 80.1719 78.1562 80.3281V85.7656C78.1562 85.9219 78.0781 86 77.9219 86ZM109.469 86H93.9531C93.8281 86 93.7656 85.9219 93.7656 85.7656L93.8125 52.7891C93.8125 52.6641 93.875 52.6016 94 52.6016H109.422C109.547 52.6016 109.609 52.6797 109.609 52.8359V58.2031C109.609 58.3281 109.547 58.3906 109.422 58.3906H99.5781V65.8906H109.422C109.547 65.8906 109.609 65.9531 109.609 66.0781L109.656 71.5156C109.656 71.6406 109.594 71.7031 109.469 71.7031H99.5781V80.0938H109.469C109.594 80.0938 109.656 80.1719 109.656 80.3281V85.8125C109.656 85.9375 109.594 86 109.469 86ZM117.836 86H112.445C112.336 86 112.289 85.9219 112.305 85.7656L117.789 68.6328L112.398 52.7891C112.367 52.6641 112.414 52.6016 112.539 52.6016H117.93C118.086 52.6016 118.18 52.6641 118.211 52.7891L121.422 64.2031L124.68 52.7891C124.711 52.6641 124.812 52.6016 124.984 52.6016H130.305C130.43 52.6016 130.477 52.6641 130.445 52.7891L125.078 68.5859L130.492 85.7656C130.555 85.9219 130.508 86 130.352 86H124.984C124.844 86 124.742 85.9219 124.68 85.7656L121.422 73.3672L118.117 85.7656C118.102 85.9219 118.008 86 117.836 86ZM143.57 86H138.156C138.016 86 137.945 85.9219 137.945 85.7656V58.3906H131.711C131.555 58.3906 131.477 58.3125 131.477 58.1562L131.523 52.7891C131.523 52.6641 131.586 52.6016 131.711 52.6016H149.945C150.117 52.6016 150.203 52.6641 150.203 52.7891V58.1562C150.203 58.3125 150.141 58.3906 150.016 58.3906H143.711L143.758 85.7656C143.758 85.9219 143.695 86 143.57 86ZM158.172 86H152.734C152.609 86 152.547 85.9219 152.547 85.7656L152.641 52.7891C152.641 52.6641 152.703 52.6016 152.828 52.6016H162.531C164.266 52.6016 165.859 53.0234 167.312 53.8672C168.766 54.7109 169.922 55.8438 170.781 57.2656C171.656 58.6875 172.094 60.2969 172.094 62.0938C172.094 63.2656 171.914 64.3281 171.555 65.2812C171.195 66.2344 170.773 67.0391 170.289 67.6953C169.82 68.3516 169.391 68.8359 169 69.1484C170.734 71.0703 171.602 73.3281 171.602 75.9219L171.648 85.7656C171.648 85.9219 171.57 86 171.414 86H165.977C165.852 86 165.789 85.9531 165.789 85.8594V75.9219C165.789 74.7656 165.383 73.7656 164.57 72.9219C163.758 72.0781 162.758 71.6562 161.57 71.6562H158.406L158.359 85.7656C158.359 85.9219 158.297 86 158.172 86ZM162.531 58.3438H158.406V65.8906H162.531C163.516 65.8906 164.391 65.5234 165.156 64.7891C165.938 64.0547 166.328 63.1562 166.328 62.0938C166.328 61.0781 165.953 60.2031 165.203 59.4688C164.453 58.7188 163.562 58.3438 162.531 58.3438ZM173.102 85.7656L179.055 52.7891C179.086 52.6641 179.164 52.6016 179.289 52.6016H186.25C186.375 52.6016 186.453 52.6641 186.484 52.7891L192.203 85.7656C192.219 85.9219 192.156 86 192.016 86H186.695C186.539 86 186.453 85.9219 186.438 85.7656L185.922 82.25H179.383L178.867 85.7656C178.852 85.9219 178.773 86 178.633 86H173.289C173.164 86 173.102 85.9219 173.102 85.7656ZM182.992 63.6406L182.711 61.8594L182.5 63.6406L180.344 77.1172H184.961L182.992 63.6406ZM204.086 86.4688C202.383 86.4688 200.812 86.0312 199.375 85.1562C197.953 84.2812 196.805 83.1172 195.93 81.6641C195.07 80.1953 194.641 78.5859 194.641 76.8359L194.688 61.625C194.688 59.8438 195.117 58.2422 195.977 56.8203C196.82 55.3828 197.961 54.2344 199.398 53.375C200.836 52.5 202.398 52.0625 204.086 52.0625C205.836 52.0625 207.406 52.4922 208.797 53.3516C210.203 54.2109 211.328 55.3672 212.172 56.8203C213.031 58.2578 213.461 59.8594 213.461 61.625L213.508 76.8359C213.508 78.5859 213.086 80.1875 212.242 81.6406C211.383 83.1094 210.242 84.2812 208.82 85.1562C207.398 86.0312 205.82 86.4688 204.086 86.4688ZM204.086 80.6797C205.055 80.6797 205.898 80.2891 206.617 79.5078C207.336 78.7109 207.695 77.8203 207.695 76.8359L207.648 61.625C207.648 60.5625 207.312 59.6641 206.641 58.9297C205.969 58.1953 205.117 57.8281 204.086 57.8281C203.102 57.8281 202.258 58.1875 201.555 58.9062C200.852 59.625 200.5 60.5312 200.5 61.625V76.8359C200.5 77.8828 200.852 78.7891 201.555 79.5547C202.258 80.3047 203.102 80.6797 204.086 80.6797ZM222.766 86H217.328C217.203 86 217.141 85.9219 217.141 85.7656L217.234 52.7891C217.234 52.6641 217.297 52.6016 217.422 52.6016H227.125C228.859 52.6016 230.453 53.0234 231.906 53.8672C233.359 54.7109 234.516 55.8438 235.375 57.2656C236.25 58.6875 236.688 60.2969 236.688 62.0938C236.688 63.2656 236.508 64.3281 236.148 65.2812C235.789 66.2344 235.367 67.0391 234.883 67.6953C234.414 68.3516 233.984 68.8359 233.594 69.1484C235.328 71.0703 236.195 73.3281 236.195 75.9219L236.242 85.7656C236.242 85.9219 236.164 86 236.008 86H230.57C230.445 86 230.383 85.9531 230.383 85.8594V75.9219C230.383 74.7656 229.977 73.7656 229.164 72.9219C228.352 72.0781 227.352 71.6562 226.164 71.6562H223L222.953 85.7656C222.953 85.9219 222.891 86 222.766 86ZM227.125 58.3438H223V65.8906H227.125C228.109 65.8906 228.984 65.5234 229.75 64.7891C230.531 64.0547 230.922 63.1562 230.922 62.0938C230.922 61.0781 230.547 60.2031 229.797 59.4688C229.047 58.7188 228.156 58.3438 227.125 58.3438ZM249.133 85.9531L240.531 86C240.375 86 240.297 85.9219 240.297 85.7656L240.391 52.7891C240.391 52.6641 240.453 52.6016 240.578 52.6016L249.555 52.5547C251.336 52.5078 252.945 52.9141 254.383 53.7734C255.836 54.6328 256.992 55.7969 257.852 57.2656C258.727 58.7188 259.164 60.3281 259.164 62.0938V75.875C259.164 77.7188 258.719 79.4062 257.828 80.9375C256.922 82.4531 255.719 83.6641 254.219 84.5703C252.719 85.4609 251.023 85.9219 249.133 85.9531ZM249.555 58.2969L246.203 58.3438L246.156 80.0938H249.133C250.32 80.0938 251.32 79.6797 252.133 78.8516C252.945 78.0234 253.352 77.0312 253.352 75.875V62.0469C253.352 61.0312 252.977 60.1484 252.227 59.3984C251.477 58.6328 250.586 58.2656 249.555 58.2969ZM268.609 86H263.172C263.016 86 262.938 85.9219 262.938 85.7656L262.984 52.7891C262.984 52.6641 263.047 52.6016 263.172 52.6016H268.562C268.688 52.6016 268.75 52.6641 268.75 52.7891L268.797 85.7656C268.797 85.9219 268.734 86 268.609 86ZM278.242 86H273.438C273.188 86 273.062 85.8906 273.062 85.6719L273.016 52.9766C273.016 52.7266 273.141 52.6016 273.391 52.6016H277.727L285.836 71.5156L285.602 52.9766C285.602 52.7266 285.742 52.6016 286.023 52.6016H290.781C290.969 52.6016 291.062 52.7266 291.062 52.9766L291.109 85.7188C291.109 85.9062 291.031 86 290.875 86H286.656L278.336 68.3281L278.688 85.625C278.688 85.875 278.539 86 278.242 86ZM293.664 85.7656L299.617 52.7891C299.648 52.6641 299.727 52.6016 299.852 52.6016H306.812C306.938 52.6016 307.016 52.6641 307.047 52.7891L312.766 85.7656C312.781 85.9219 312.719 86 312.578 86H307.258C307.102 86 307.016 85.9219 307 85.7656L306.484 82.25H299.945L299.43 85.7656C299.414 85.9219 299.336 86 299.195 86H293.852C293.727 86 293.664 85.9219 293.664 85.7656ZM303.555 63.6406L303.273 61.8594L303.062 63.6406L300.906 77.1172H305.523L303.555 63.6406ZM321.391 86H315.953C315.828 86 315.766 85.9219 315.766 85.7656L315.859 52.7891C315.859 52.6641 315.922 52.6016 316.047 52.6016H325.75C327.484 52.6016 329.078 53.0234 330.531 53.8672C331.984 54.7109 333.141 55.8438 334 57.2656C334.875 58.6875 335.312 60.2969 335.312 62.0938C335.312 63.2656 335.133 64.3281 334.773 65.2812C334.414 66.2344 333.992 67.0391 333.508 67.6953C333.039 68.3516 332.609 68.8359 332.219 69.1484C333.953 71.0703 334.82 73.3281 334.82 75.9219L334.867 85.7656C334.867 85.9219 334.789 86 334.633 86H329.195C329.07 86 329.008 85.9531 329.008 85.8594V75.9219C329.008 74.7656 328.602 73.7656 327.789 72.9219C326.977 72.0781 325.977 71.6562 324.789 71.6562H321.625L321.578 85.7656C321.578 85.9219 321.516 86 321.391 86ZM325.75 58.3438H321.625V65.8906H325.75C326.734 65.8906 327.609 65.5234 328.375 64.7891C329.156 64.0547 329.547 63.1562 329.547 62.0938C329.547 61.0781 329.172 60.2031 328.422 59.4688C327.672 58.7188 326.781 58.3438 325.75 58.3438ZM348.93 86H343.422C343.312 86 343.258 85.9375 343.258 85.8125L343.305 72.1719L336.883 52.7891C336.852 52.6641 336.898 52.6016 337.023 52.6016H342.367C342.523 52.6016 342.617 52.6641 342.648 52.7891L346.188 65.7031L349.797 52.7891C349.828 52.6641 349.906 52.6016 350.031 52.6016H355.422C355.547 52.6016 355.594 52.6641 355.562 52.7891L349.07 71.9844L349.117 85.8125C349.117 85.9375 349.055 86 348.93 86ZM375.883 86H371.078C370.828 86 370.703 85.8906 370.703 85.6719L370.656 52.9766C370.656 52.7266 370.781 52.6016 371.031 52.6016H375.367L383.477 71.5156L383.242 52.9766C383.242 52.7266 383.383 52.6016 383.664 52.6016H388.422C388.609 52.6016 388.703 52.7266 388.703 52.9766L388.75 85.7188C388.75 85.9062 388.672 86 388.516 86H384.297L375.977 68.3281L376.328 85.625C376.328 85.875 376.18 86 375.883 86ZM398.547 86H393.156C393 86 392.922 85.9219 392.922 85.7656L393.016 52.7891C393.016 52.6641 393.078 52.6016 393.203 52.6016H408.578C408.734 52.6016 408.812 52.6641 408.812 52.7891V58.2031C408.812 58.3281 408.75 58.3906 408.625 58.3906H398.781V65.8438H408.625C408.75 65.8438 408.812 65.9219 408.812 66.0781L408.859 71.5156C408.859 71.6406 408.781 71.7031 408.625 71.7031H398.781V85.7656C398.781 85.9219 398.703 86 398.547 86ZM423.367 86H417.953C417.812 86 417.742 85.9219 417.742 85.7656V58.3906H411.508C411.352 58.3906 411.273 58.3125 411.273 58.1562L411.32 52.7891C411.32 52.6641 411.383 52.6016 411.508 52.6016H429.742C429.914 52.6016 430 52.6641 430 52.7891V58.1562C430 58.3125 429.938 58.3906 429.812 58.3906H423.508L423.555 85.7656C423.555 85.9219 423.492 86 423.367 86ZM432.461 84.9219C432.461 84.5625 432.492 84.1719 432.555 83.75C432.602 83.3906 432.672 82.9844 432.766 82.5312C432.875 82.0625 433.031 81.5781 433.234 81.0781C433.922 81.3438 434.641 81.5781 435.391 81.7812C436.031 81.9531 436.727 82.1172 437.477 82.2734C438.227 82.4141 438.969 82.4844 439.703 82.4844C440.359 82.4844 440.969 82.4609 441.531 82.4141C442.094 82.3672 442.578 82.2422 442.984 82.0391C443.406 81.8203 443.734 81.5 443.969 81.0781C444.203 80.6406 444.32 80.0391 444.32 79.2734C444.32 78.3516 444.031 77.625 443.453 77.0938C442.891 76.5625 441.906 76.1641 440.5 75.8984C439.047 75.6172 437.82 75.2422 436.82 74.7734C435.836 74.3047 435.031 73.7656 434.406 73.1562C433.797 72.5312 433.352 71.8359 433.07 71.0703C432.805 70.3047 432.672 69.4844 432.672 68.6094C432.672 67.2969 432.883 66.1797 433.305 65.2578C433.727 64.3359 434.336 63.5938 435.133 63.0312C435.945 62.4531 436.945 62.0391 438.133 61.7891C439.336 61.5234 440.711 61.3906 442.258 61.3906C443.336 61.3906 444.289 61.4688 445.117 61.625C445.961 61.7656 446.664 61.9219 447.227 62.0938C447.883 62.2969 448.453 62.5312 448.938 62.7969C448.891 63.1406 448.805 63.5156 448.68 63.9219C448.57 64.2656 448.422 64.6562 448.234 65.0938C448.062 65.5312 447.828 65.9766 447.531 66.4297C447.109 66.1797 446.625 65.9609 446.078 65.7734C445.609 65.6016 445.047 65.4531 444.391 65.3281C443.734 65.1875 442.984 65.1172 442.141 65.1172C441.484 65.1172 440.875 65.1484 440.312 65.2109C439.766 65.2734 439.289 65.4141 438.883 65.6328C438.492 65.8516 438.188 66.1875 437.969 66.6406C437.75 67.0781 437.641 67.6797 437.641 68.4453C437.641 68.8203 437.688 69.1641 437.781 69.4766C437.891 69.7734 438.094 70.0469 438.391 70.2969C438.703 70.5469 439.133 70.7812 439.68 71C440.242 71.2031 440.984 71.4062 441.906 71.6094C443.344 71.9219 444.539 72.2812 445.492 72.6875C446.461 73.0938 447.227 73.5859 447.789 74.1641C448.367 74.7422 448.773 75.4219 449.008 76.2031C449.258 76.9688 449.383 77.8828 449.383 78.9453C449.383 80.0859 449.203 81.1172 448.844 82.0391C448.484 82.9609 447.922 83.75 447.156 84.4062C446.391 85.0625 445.406 85.5703 444.203 85.9297C443 86.2891 441.547 86.4688 439.844 86.4688C438.75 86.4688 437.75 86.3906 436.844 86.2344C435.953 86.0781 435.18 85.8984 434.523 85.6953C433.758 85.4766 433.07 85.2188 432.461 84.9219Z" fill="white"/>
</svg>
