<svg width="256" height="45" viewBox="0 0 256 45" fill="none" xmlns="http://www.w3.org/2000/svg">
<path d="M2.73875 23V6.2H5.13875V23H2.73875ZM16.6244 10.16C17.6644 10.16 18.5764 10.36 19.3604 10.76C20.1604 11.16 20.7844 11.768 21.2324 12.584C21.6804 13.4 21.9044 14.432 21.9044 15.68V23H19.6004V15.944C19.6004 14.712 19.2964 13.784 18.6884 13.16C18.0964 12.536 17.2564 12.224 16.1684 12.224C15.3524 12.224 14.6404 12.384 14.0324 12.704C13.4244 13.024 12.9524 13.496 12.6164 14.12C12.2964 14.744 12.1364 15.52 12.1364 16.448V23H9.83244V10.28H12.0404V13.712L11.6804 12.8C12.0964 11.968 12.7364 11.32 13.6004 10.856C14.4644 10.392 15.4724 10.16 16.6244 10.16ZM32.9124 23.144C31.8564 23.144 30.8884 22.904 30.0084 22.424C29.1444 21.928 28.4484 21.2 27.9204 20.24C27.4084 19.28 27.1524 18.08 27.1524 16.64C27.1524 15.2 27.4004 14 27.8964 13.04C28.4084 12.08 29.0964 11.36 29.9604 10.88C30.8404 10.4 31.8244 10.16 32.9124 10.16C34.1604 10.16 35.2644 10.432 36.2244 10.976C37.1844 11.52 37.9444 12.28 38.5044 13.256C39.0644 14.216 39.3444 15.344 39.3444 16.64C39.3444 17.936 39.0644 19.072 38.5044 20.048C37.9444 21.024 37.1844 21.784 36.2244 22.328C35.2644 22.872 34.1604 23.144 32.9124 23.144ZM26.1684 27.656V10.28H28.3764V13.712L28.2324 16.664L28.4724 19.616V27.656H26.1684ZM32.7204 21.128C33.5364 21.128 34.2644 20.944 34.9044 20.576C35.5604 20.208 36.0724 19.688 36.4404 19.016C36.8244 18.328 37.0164 17.536 37.0164 16.64C37.0164 15.728 36.8244 14.944 36.4404 14.288C36.0724 13.616 35.5604 13.096 34.9044 12.728C34.2644 12.36 33.5364 12.176 32.7204 12.176C31.9204 12.176 31.1924 12.36 30.5364 12.728C29.8964 13.096 29.3844 13.616 29.0004 14.288C28.6324 14.944 28.4484 15.728 28.4484 16.64C28.4484 17.536 28.6324 18.328 29.0004 19.016C29.3844 19.688 29.8964 20.208 30.5364 20.576C31.1924 20.944 31.9204 21.128 32.7204 21.128ZM47.8798 23.144C46.7918 23.144 45.8318 22.944 44.9998 22.544C44.1838 22.144 43.5438 21.536 43.0798 20.72C42.6318 19.888 42.4078 18.848 42.4078 17.6V10.28H44.7118V17.336C44.7118 18.584 45.0078 19.52 45.5998 20.144C46.2078 20.768 47.0558 21.08 48.1438 21.08C48.9438 21.08 49.6398 20.92 50.2318 20.6C50.8238 20.264 51.2798 19.784 51.5998 19.16C51.9198 18.52 52.0798 17.752 52.0798 16.856V10.28H54.3838V23H52.1998V19.568L52.5598 20.48C52.1438 21.328 51.5198 21.984 50.6878 22.448C49.8558 22.912 48.9198 23.144 47.8798 23.144ZM63.1379 23.144C61.8579 23.144 60.8659 22.8 60.1619 22.112C59.4579 21.424 59.1059 20.44 59.1059 19.16V7.496H61.4099V19.064C61.4099 19.752 61.5779 20.28 61.9139 20.648C62.2659 21.016 62.7619 21.2 63.4019 21.2C64.1219 21.2 64.7219 21 65.2019 20.6L65.9219 22.256C65.5699 22.56 65.1459 22.784 64.6499 22.928C64.1699 23.072 63.6659 23.144 63.1379 23.144ZM56.9459 12.176V10.28H65.0579V12.176H56.9459ZM75.4888 23V6.2H77.4568L88.5688 20H87.5368V6.2H89.9368V23H87.9688L76.8568 9.2H77.8888V23H75.4888ZM97.1253 14.144H105.789V16.208H97.1253V14.144ZM97.3653 23H94.9653V6.2H106.821V8.288H97.3653V23ZM113.653 23V8.288H107.893V6.2H121.789V8.288H116.029V23H113.653ZM130.848 23V6.2H137.928C139.72 6.2 141.296 6.552 142.656 7.256C144.032 7.96 145.096 8.944 145.848 10.208C146.616 11.472 147 12.936 147 14.6C147 16.264 146.616 17.728 145.848 18.992C145.096 20.256 144.032 21.24 142.656 21.944C141.296 22.648 139.72 23 137.928 23H130.848ZM133.248 20.912H137.784C139.176 20.912 140.376 20.648 141.384 20.12C142.408 19.592 143.2 18.856 143.76 17.912C144.32 16.952 144.6 15.848 144.6 14.6C144.6 13.336 144.32 12.232 143.76 11.288C143.2 10.344 142.408 9.608 141.384 9.08C140.376 8.552 139.176 8.288 137.784 8.288H133.248V20.912ZM158.236 23V20.312L158.116 19.808V15.224C158.116 14.248 157.828 13.496 157.252 12.968C156.692 12.424 155.844 12.152 154.708 12.152C153.956 12.152 153.22 12.28 152.5 12.536C151.78 12.776 151.172 13.104 150.676 13.52L149.716 11.792C150.372 11.264 151.156 10.864 152.068 10.592C152.996 10.304 153.964 10.16 154.972 10.16C156.716 10.16 158.06 10.584 159.004 11.432C159.948 12.28 160.42 13.576 160.42 15.32V23H158.236ZM154.06 23.144C153.116 23.144 152.284 22.984 151.564 22.664C150.86 22.344 150.316 21.904 149.932 21.344C149.548 20.768 149.356 20.12 149.356 19.4C149.356 18.712 149.516 18.088 149.836 17.528C150.172 16.968 150.708 16.52 151.444 16.184C152.196 15.848 153.204 15.68 154.468 15.68H158.5V17.336H154.564C153.412 17.336 152.636 17.528 152.236 17.912C151.836 18.296 151.636 18.76 151.636 19.304C151.636 19.928 151.884 20.432 152.38 20.816C152.876 21.184 153.564 21.368 154.444 21.368C155.308 21.368 156.06 21.176 156.7 20.792C157.356 20.408 157.828 19.848 158.116 19.112L158.572 20.696C158.268 21.448 157.732 22.048 156.964 22.496C156.196 22.928 155.228 23.144 154.06 23.144ZM169.052 23.144C167.772 23.144 166.78 22.8 166.076 22.112C165.372 21.424 165.02 20.44 165.02 19.16V7.496H167.324V19.064C167.324 19.752 167.492 20.28 167.828 20.648C168.18 21.016 168.676 21.2 169.316 21.2C170.036 21.2 170.636 21 171.116 20.6L171.836 22.256C171.484 22.56 171.06 22.784 170.564 22.928C170.084 23.072 169.58 23.144 169.052 23.144ZM162.86 12.176V10.28H170.972V12.176H162.86ZM182.518 23V20.312L182.398 19.808V15.224C182.398 14.248 182.11 13.496 181.534 12.968C180.974 12.424 180.126 12.152 178.99 12.152C178.238 12.152 177.502 12.28 176.782 12.536C176.062 12.776 175.454 13.104 174.958 13.52L173.998 11.792C174.654 11.264 175.438 10.864 176.35 10.592C177.278 10.304 178.246 10.16 179.254 10.16C180.998 10.16 182.342 10.584 183.286 11.432C184.23 12.28 184.702 13.576 184.702 15.32V23H182.518ZM178.342 23.144C177.398 23.144 176.566 22.984 175.846 22.664C175.142 22.344 174.598 21.904 174.214 21.344C173.83 20.768 173.638 20.12 173.638 19.4C173.638 18.712 173.798 18.088 174.118 17.528C174.454 16.968 174.99 16.52 175.726 16.184C176.478 15.848 177.486 15.68 178.75 15.68H182.782V17.336H178.846C177.694 17.336 176.918 17.528 176.518 17.912C176.118 18.296 175.918 18.76 175.918 19.304C175.918 19.928 176.166 20.432 176.662 20.816C177.158 21.184 177.846 21.368 178.726 21.368C179.59 21.368 180.342 21.176 180.982 20.792C181.638 20.408 182.11 19.848 182.398 19.112L182.854 20.696C182.55 21.448 182.014 22.048 181.246 22.496C180.478 22.928 179.51 23.144 178.342 23.144Z" fill="#545454"/>
<path d="M3.83773 41V31.805H0.237734V30.5H8.92273V31.805H5.32273V41H3.83773ZM14.5914 32.975C15.2414 32.975 15.8114 33.1 16.3014 33.35C16.8014 33.6 17.1914 33.98 17.4714 34.49C17.7514 35 17.8914 35.645 17.8914 36.425V41H16.4514V36.59C16.4514 35.82 16.2614 35.24 15.8814 34.85C15.5114 34.46 14.9864 34.265 14.3064 34.265C13.7964 34.265 13.3514 34.365 12.9714 34.565C12.5914 34.765 12.2964 35.06 12.0864 35.45C11.8864 35.84 11.7864 36.325 11.7864 36.905V41H10.3464V29.87H11.7864V35.195L11.5014 34.625C11.7614 34.105 12.1614 33.7 12.7014 33.41C13.2414 33.12 13.8714 32.975 14.5914 32.975ZM24.0964 41.09C23.2464 41.09 22.4964 40.915 21.8464 40.565C21.2064 40.215 20.7064 39.735 20.3464 39.125C19.9964 38.515 19.8214 37.815 19.8214 37.025C19.8214 36.235 19.9914 35.535 20.3314 34.925C20.6814 34.315 21.1564 33.84 21.7564 33.5C22.3664 33.15 23.0514 32.975 23.8114 32.975C24.5814 32.975 25.2614 33.145 25.8514 33.485C26.4414 33.825 26.9014 34.305 27.2314 34.925C27.5714 35.535 27.7414 36.25 27.7414 37.07C27.7414 37.13 27.7364 37.2 27.7264 37.28C27.7264 37.36 27.7214 37.435 27.7114 37.505H20.9464V36.47H26.9614L26.3764 36.83C26.3864 36.32 26.2814 35.865 26.0614 35.465C25.8414 35.065 25.5364 34.755 25.1464 34.535C24.7664 34.305 24.3214 34.19 23.8114 34.19C23.3114 34.19 22.8664 34.305 22.4764 34.535C22.0864 34.755 21.7814 35.07 21.5614 35.48C21.3414 35.88 21.2314 36.34 21.2314 36.86V37.1C21.2314 37.63 21.3514 38.105 21.5914 38.525C21.8414 38.935 22.1864 39.255 22.6264 39.485C23.0664 39.715 23.5714 39.83 24.1414 39.83C24.6114 39.83 25.0364 39.75 25.4164 39.59C25.8064 39.43 26.1464 39.19 26.4364 38.87L27.2314 39.8C26.8714 40.22 26.4214 40.54 25.8814 40.76C25.3514 40.98 24.7564 41.09 24.0964 41.09ZM33.9793 41V30.5H35.2093L39.9193 38.435H39.2593L43.9093 30.5H45.1393L45.1543 41H43.7143L43.6993 32.765H44.0443L39.9043 39.725H39.2143L35.0443 32.765H35.4193V41H33.9793ZM51.6355 41.09C50.7855 41.09 50.0355 40.915 49.3855 40.565C48.7455 40.215 48.2455 39.735 47.8855 39.125C47.5355 38.515 47.3605 37.815 47.3605 37.025C47.3605 36.235 47.5305 35.535 47.8705 34.925C48.2205 34.315 48.6955 33.84 49.2955 33.5C49.9055 33.15 50.5905 32.975 51.3505 32.975C52.1205 32.975 52.8005 33.145 53.3905 33.485C53.9805 33.825 54.4405 34.305 54.7705 34.925C55.1105 35.535 55.2805 36.25 55.2805 37.07C55.2805 37.13 55.2755 37.2 55.2655 37.28C55.2655 37.36 55.2605 37.435 55.2505 37.505H48.4855V36.47H54.5005L53.9155 36.83C53.9255 36.32 53.8205 35.865 53.6005 35.465C53.3805 35.065 53.0755 34.755 52.6855 34.535C52.3055 34.305 51.8605 34.19 51.3505 34.19C50.8505 34.19 50.4055 34.305 50.0155 34.535C49.6255 34.755 49.3205 35.07 49.1005 35.48C48.8805 35.88 48.7705 36.34 48.7705 36.86V37.1C48.7705 37.63 48.8905 38.105 49.1305 38.525C49.3805 38.935 49.7255 39.255 50.1655 39.485C50.6055 39.715 51.1105 39.83 51.6805 39.83C52.1505 39.83 52.5755 39.75 52.9555 39.59C53.3455 39.43 53.6855 39.19 53.9755 38.87L54.7705 39.8C54.4105 40.22 53.9605 40.54 53.4205 40.76C52.8905 40.98 52.2955 41.09 51.6355 41.09ZM60.01 41.09C59.21 41.09 58.59 40.875 58.15 40.445C57.71 40.015 57.49 39.4 57.49 38.6V31.31H58.93V38.54C58.93 38.97 59.035 39.3 59.245 39.53C59.465 39.76 59.775 39.875 60.175 39.875C60.625 39.875 61 39.75 61.3 39.5L61.75 40.535C61.53 40.725 61.265 40.865 60.955 40.955C60.655 41.045 60.34 41.09 60.01 41.09ZM56.14 34.235V33.05H61.21V34.235H56.14ZM68.426 41V39.32L68.351 39.005V36.14C68.351 35.53 68.171 35.06 67.811 34.73C67.461 34.39 66.931 34.22 66.221 34.22C65.751 34.22 65.291 34.3 64.841 34.46C64.391 34.61 64.011 34.815 63.701 35.075L63.101 33.995C63.511 33.665 64.001 33.415 64.571 33.245C65.151 33.065 65.756 32.975 66.386 32.975C67.476 32.975 68.316 33.24 68.906 33.77C69.496 34.3 69.791 35.11 69.791 36.2V41H68.426ZM65.816 41.09C65.226 41.09 64.706 40.99 64.256 40.79C63.816 40.59 63.476 40.315 63.236 39.965C62.996 39.605 62.876 39.2 62.876 38.75C62.876 38.32 62.976 37.93 63.176 37.58C63.386 37.23 63.721 36.95 64.181 36.74C64.651 36.53 65.281 36.425 66.071 36.425H68.591V37.46H66.131C65.411 37.46 64.926 37.58 64.676 37.82C64.426 38.06 64.301 38.35 64.301 38.69C64.301 39.08 64.456 39.395 64.766 39.635C65.076 39.865 65.506 39.98 66.056 39.98C66.596 39.98 67.066 39.86 67.466 39.62C67.876 39.38 68.171 39.03 68.351 38.57L68.636 39.56C68.446 40.03 68.111 40.405 67.631 40.685C67.151 40.955 66.546 41.09 65.816 41.09ZM75.7408 41.09C74.9708 41.09 74.2808 40.92 73.6708 40.58C73.0708 40.24 72.5958 39.765 72.2458 39.155C71.8958 38.545 71.7208 37.835 71.7208 37.025C71.7208 36.215 71.8958 35.51 72.2458 34.91C72.5958 34.3 73.0708 33.825 73.6708 33.485C74.2808 33.145 74.9708 32.975 75.7408 32.975C76.4108 32.975 77.0158 33.125 77.5558 33.425C78.0958 33.725 78.5258 34.175 78.8458 34.775C79.1758 35.375 79.3408 36.125 79.3408 37.025C79.3408 37.925 79.1808 38.675 78.8608 39.275C78.5508 39.875 78.1258 40.33 77.5858 40.64C77.0458 40.94 76.4308 41.09 75.7408 41.09ZM75.8608 39.83C76.3608 39.83 76.8108 39.715 77.2108 39.485C77.6208 39.255 77.9408 38.93 78.1708 38.51C78.4108 38.08 78.5308 37.585 78.5308 37.025C78.5308 36.455 78.4108 35.965 78.1708 35.555C77.9408 35.135 77.6208 34.81 77.2108 34.58C76.8108 34.35 76.3608 34.235 75.8608 34.235C75.3508 34.235 74.8958 34.35 74.4958 34.58C74.0958 34.81 73.7758 35.135 73.5358 35.555C73.2958 35.965 73.1758 36.455 73.1758 37.025C73.1758 37.585 73.2958 38.08 73.5358 38.51C73.7758 38.93 74.0958 39.255 74.4958 39.485C74.8958 39.715 75.3508 39.83 75.8608 39.83ZM78.5758 41V38.855L78.6658 37.01L78.5158 35.165V29.87H79.9558V41H78.5758ZM87.6154 41V39.32L87.5404 39.005V36.14C87.5404 35.53 87.3604 35.06 87.0004 34.73C86.6504 34.39 86.1204 34.22 85.4104 34.22C84.9404 34.22 84.4804 34.3 84.0304 34.46C83.5804 34.61 83.2004 34.815 82.8904 35.075L82.2904 33.995C82.7004 33.665 83.1904 33.415 83.7604 33.245C84.3404 33.065 84.9454 32.975 85.5754 32.975C86.6654 32.975 87.5054 33.24 88.0954 33.77C88.6854 34.3 88.9804 35.11 88.9804 36.2V41H87.6154ZM85.0054 41.09C84.4154 41.09 83.8954 40.99 83.4454 40.79C83.0054 40.59 82.6654 40.315 82.4254 39.965C82.1854 39.605 82.0654 39.2 82.0654 38.75C82.0654 38.32 82.1654 37.93 82.3654 37.58C82.5754 37.23 82.9104 36.95 83.3704 36.74C83.8404 36.53 84.4704 36.425 85.2604 36.425H87.7804V37.46H85.3204C84.6004 37.46 84.1154 37.58 83.8654 37.82C83.6154 38.06 83.4904 38.35 83.4904 38.69C83.4904 39.08 83.6454 39.395 83.9554 39.635C84.2654 39.865 84.6954 39.98 85.2454 39.98C85.7854 39.98 86.2554 39.86 86.6554 39.62C87.0654 39.38 87.3604 39.03 87.5404 38.57L87.8254 39.56C87.6354 40.03 87.3004 40.405 86.8204 40.685C86.3404 40.955 85.7354 41.09 85.0054 41.09ZM94.3753 41.09C93.5753 41.09 92.9553 40.875 92.5153 40.445C92.0753 40.015 91.8553 39.4 91.8553 38.6V31.31H93.2953V38.54C93.2953 38.97 93.4003 39.3 93.6103 39.53C93.8303 39.76 94.1403 39.875 94.5403 39.875C94.9903 39.875 95.3653 39.75 95.6653 39.5L96.1153 40.535C95.8953 40.725 95.6303 40.865 95.3203 40.955C95.0203 41.045 94.7053 41.09 94.3753 41.09ZM90.5053 34.235V33.05H95.5753V34.235H90.5053ZM102.791 41V39.32L102.716 39.005V36.14C102.716 35.53 102.536 35.06 102.176 34.73C101.826 34.39 101.296 34.22 100.586 34.22C100.116 34.22 99.6562 34.3 99.2062 34.46C98.7562 34.61 98.3762 34.815 98.0662 35.075L97.4662 33.995C97.8762 33.665 98.3662 33.415 98.9362 33.245C99.5162 33.065 100.121 32.975 100.751 32.975C101.841 32.975 102.681 33.24 103.271 33.77C103.861 34.3 104.156 35.11 104.156 36.2V41H102.791ZM100.181 41.09C99.5912 41.09 99.0712 40.99 98.6212 40.79C98.1812 40.59 97.8412 40.315 97.6012 39.965C97.3612 39.605 97.2412 39.2 97.2412 38.75C97.2412 38.32 97.3412 37.93 97.5412 37.58C97.7512 37.23 98.0862 36.95 98.5462 36.74C99.0162 36.53 99.6462 36.425 100.436 36.425H102.956V37.46H100.496C99.7762 37.46 99.2912 37.58 99.0412 37.82C98.7912 38.06 98.6662 38.35 98.6662 38.69C98.6662 39.08 98.8212 39.395 99.1312 39.635C99.4412 39.865 99.8712 39.98 100.421 39.98C100.961 39.98 101.431 39.86 101.831 39.62C102.241 39.38 102.536 39.03 102.716 38.57L103.001 39.56C102.811 40.03 102.476 40.405 101.996 40.685C101.516 40.955 100.911 41.09 100.181 41.09ZM112.409 35.465H117.824V36.755H112.409V35.465ZM112.559 41H111.059V30.5H118.469V31.805H112.559V41ZM120.371 41V33.05H121.811V41H120.371ZM121.091 31.52C120.811 31.52 120.576 31.43 120.386 31.25C120.206 31.07 120.116 30.85 120.116 30.59C120.116 30.32 120.206 30.095 120.386 29.915C120.576 29.735 120.811 29.645 121.091 29.645C121.371 29.645 121.601 29.735 121.781 29.915C121.971 30.085 122.066 30.3 122.066 30.56C122.066 30.83 121.976 31.06 121.796 31.25C121.616 31.43 121.381 31.52 121.091 31.52ZM128.1 41.09C127.25 41.09 126.5 40.915 125.85 40.565C125.21 40.215 124.71 39.735 124.35 39.125C124 38.515 123.825 37.815 123.825 37.025C123.825 36.235 123.995 35.535 124.335 34.925C124.685 34.315 125.16 33.84 125.76 33.5C126.37 33.15 127.055 32.975 127.815 32.975C128.585 32.975 129.265 33.145 129.855 33.485C130.445 33.825 130.905 34.305 131.235 34.925C131.575 35.535 131.745 36.25 131.745 37.07C131.745 37.13 131.74 37.2 131.73 37.28C131.73 37.36 131.725 37.435 131.715 37.505H124.95V36.47H130.965L130.38 36.83C130.39 36.32 130.285 35.865 130.065 35.465C129.845 35.065 129.54 34.755 129.15 34.535C128.77 34.305 128.325 34.19 127.815 34.19C127.315 34.19 126.87 34.305 126.48 34.535C126.09 34.755 125.785 35.07 125.565 35.48C125.345 35.88 125.235 36.34 125.235 36.86V37.1C125.235 37.63 125.355 38.105 125.595 38.525C125.845 38.935 126.19 39.255 126.63 39.485C127.07 39.715 127.575 39.83 128.145 39.83C128.615 39.83 129.04 39.75 129.42 39.59C129.81 39.43 130.15 39.19 130.44 38.87L131.235 39.8C130.875 40.22 130.425 40.54 129.885 40.76C129.355 40.98 128.76 41.09 128.1 41.09ZM133.745 41V29.87H135.185V41H133.745ZM141.219 41.09C140.449 41.09 139.759 40.92 139.149 40.58C138.549 40.24 138.074 39.765 137.724 39.155C137.374 38.545 137.199 37.835 137.199 37.025C137.199 36.215 137.374 35.51 137.724 34.91C138.074 34.3 138.549 33.825 139.149 33.485C139.759 33.145 140.449 32.975 141.219 32.975C141.889 32.975 142.494 33.125 143.034 33.425C143.574 33.725 144.004 34.175 144.324 34.775C144.654 35.375 144.819 36.125 144.819 37.025C144.819 37.925 144.659 38.675 144.339 39.275C144.029 39.875 143.604 40.33 143.064 40.64C142.524 40.94 141.909 41.09 141.219 41.09ZM141.339 39.83C141.839 39.83 142.289 39.715 142.689 39.485C143.099 39.255 143.419 38.93 143.649 38.51C143.889 38.08 144.009 37.585 144.009 37.025C144.009 36.455 143.889 35.965 143.649 35.555C143.419 35.135 143.099 34.81 142.689 34.58C142.289 34.35 141.839 34.235 141.339 34.235C140.829 34.235 140.374 34.35 139.974 34.58C139.574 34.81 139.254 35.135 139.014 35.555C138.774 35.965 138.654 36.455 138.654 37.025C138.654 37.585 138.774 38.08 139.014 38.51C139.254 38.93 139.574 39.255 139.974 39.485C140.374 39.715 140.829 39.83 141.339 39.83ZM144.054 41V38.855L144.144 37.01L143.994 35.165V29.87H145.434V41H144.054ZM150.439 41.09C149.779 41.09 149.149 41 148.549 40.82C147.959 40.64 147.494 40.42 147.154 40.16L147.754 39.02C148.094 39.25 148.514 39.445 149.014 39.605C149.514 39.765 150.024 39.845 150.544 39.845C151.214 39.845 151.694 39.75 151.984 39.56C152.284 39.37 152.434 39.105 152.434 38.765C152.434 38.515 152.344 38.32 152.164 38.18C151.984 38.04 151.744 37.935 151.444 37.865C151.154 37.795 150.829 37.735 150.469 37.685C150.109 37.625 149.749 37.555 149.389 37.475C149.029 37.385 148.699 37.265 148.399 37.115C148.099 36.955 147.859 36.74 147.679 36.47C147.499 36.19 147.409 35.82 147.409 35.36C147.409 34.88 147.544 34.46 147.814 34.1C148.084 33.74 148.464 33.465 148.954 33.275C149.454 33.075 150.044 32.975 150.724 32.975C151.244 32.975 151.769 33.04 152.299 33.17C152.839 33.29 153.279 33.465 153.619 33.695L153.004 34.835C152.644 34.595 152.269 34.43 151.879 34.34C151.489 34.25 151.099 34.205 150.709 34.205C150.079 34.205 149.609 34.31 149.299 34.52C148.989 34.72 148.834 34.98 148.834 35.3C148.834 35.57 148.924 35.78 149.104 35.93C149.294 36.07 149.534 36.18 149.824 36.26C150.124 36.34 150.454 36.41 150.814 36.47C151.174 36.52 151.534 36.59 151.894 36.68C152.254 36.76 152.579 36.875 152.869 37.025C153.169 37.175 153.409 37.385 153.589 37.655C153.779 37.925 153.874 38.285 153.874 38.735C153.874 39.215 153.734 39.63 153.454 39.98C153.174 40.33 152.779 40.605 152.269 40.805C151.759 40.995 151.149 41.09 150.439 41.09ZM159.912 41V32.345C159.912 31.565 160.137 30.945 160.587 30.485C161.047 30.015 161.697 29.78 162.537 29.78C162.847 29.78 163.142 29.82 163.422 29.9C163.712 29.97 163.957 30.085 164.157 30.245L163.722 31.34C163.572 31.22 163.402 31.13 163.212 31.07C163.022 31 162.822 30.965 162.612 30.965C162.192 30.965 161.872 31.085 161.652 31.325C161.432 31.555 161.322 31.9 161.322 32.36V33.425L161.352 34.085V41H159.912ZM158.562 34.235V33.05H163.632V34.235H158.562ZM168.278 41.09C167.478 41.09 166.768 40.915 166.148 40.565C165.528 40.215 165.038 39.735 164.678 39.125C164.318 38.505 164.138 37.805 164.138 37.025C164.138 36.235 164.318 35.535 164.678 34.925C165.038 34.315 165.528 33.84 166.148 33.5C166.768 33.15 167.478 32.975 168.278 32.975C169.068 32.975 169.773 33.15 170.393 33.5C171.023 33.84 171.513 34.315 171.863 34.925C172.223 35.525 172.403 36.225 172.403 37.025C172.403 37.815 172.223 38.515 171.863 39.125C171.513 39.735 171.023 40.215 170.393 40.565C169.773 40.915 169.068 41.09 168.278 41.09ZM168.278 39.83C168.788 39.83 169.243 39.715 169.643 39.485C170.053 39.255 170.373 38.93 170.603 38.51C170.833 38.08 170.948 37.585 170.948 37.025C170.948 36.455 170.833 35.965 170.603 35.555C170.373 35.135 170.053 34.81 169.643 34.58C169.243 34.35 168.788 34.235 168.278 34.235C167.768 34.235 167.313 34.35 166.913 34.58C166.513 34.81 166.193 35.135 165.953 35.555C165.713 35.965 165.593 36.455 165.593 37.025C165.593 37.585 165.713 38.08 165.953 38.51C166.193 38.93 166.513 39.255 166.913 39.485C167.313 39.715 167.768 39.83 168.278 39.83ZM174.394 41V33.05H175.774V35.21L175.639 34.67C175.859 34.12 176.229 33.7 176.749 33.41C177.269 33.12 177.909 32.975 178.669 32.975V34.37C178.609 34.36 178.549 34.355 178.489 34.355C178.439 34.355 178.389 34.355 178.339 34.355C177.569 34.355 176.959 34.585 176.509 35.045C176.059 35.505 175.834 36.17 175.834 37.04V41H174.394ZM188.948 44C188.568 44 188.198 43.935 187.838 43.805C187.478 43.685 187.168 43.505 186.908 43.265L187.523 42.185C187.723 42.375 187.943 42.52 188.183 42.62C188.423 42.72 188.678 42.77 188.948 42.77C189.298 42.77 189.588 42.68 189.818 42.5C190.048 42.32 190.263 42 190.463 41.54L190.958 40.445L191.108 40.265L194.228 33.05H195.638L191.783 41.795C191.553 42.355 191.293 42.795 191.003 43.115C190.723 43.435 190.413 43.66 190.073 43.79C189.733 43.93 189.358 44 188.948 44ZM190.838 41.255L187.208 33.05H188.708L191.798 40.13L190.838 41.255ZM200.167 41.09C199.367 41.09 198.657 40.915 198.037 40.565C197.417 40.215 196.927 39.735 196.567 39.125C196.207 38.505 196.027 37.805 196.027 37.025C196.027 36.235 196.207 35.535 196.567 34.925C196.927 34.315 197.417 33.84 198.037 33.5C198.657 33.15 199.367 32.975 200.167 32.975C200.957 32.975 201.662 33.15 202.282 33.5C202.912 33.84 203.402 34.315 203.752 34.925C204.112 35.525 204.292 36.225 204.292 37.025C204.292 37.815 204.112 38.515 203.752 39.125C203.402 39.735 202.912 40.215 202.282 40.565C201.662 40.915 200.957 41.09 200.167 41.09ZM200.167 39.83C200.677 39.83 201.132 39.715 201.532 39.485C201.942 39.255 202.262 38.93 202.492 38.51C202.722 38.08 202.837 37.585 202.837 37.025C202.837 36.455 202.722 35.965 202.492 35.555C202.262 35.135 201.942 34.81 201.532 34.58C201.132 34.35 200.677 34.235 200.167 34.235C199.657 34.235 199.202 34.35 198.802 34.58C198.402 34.81 198.082 35.135 197.842 35.555C197.602 35.965 197.482 36.455 197.482 37.025C197.482 37.585 197.602 38.08 197.842 38.51C198.082 38.93 198.402 39.255 198.802 39.485C199.202 39.715 199.657 39.83 200.167 39.83ZM209.629 41.09C208.949 41.09 208.349 40.965 207.829 40.715C207.319 40.465 206.919 40.085 206.629 39.575C206.349 39.055 206.209 38.405 206.209 37.625V33.05H207.649V37.46C207.649 38.24 207.834 38.825 208.204 39.215C208.584 39.605 209.114 39.8 209.794 39.8C210.294 39.8 210.729 39.7 211.099 39.5C211.469 39.29 211.754 38.99 211.954 38.6C212.154 38.2 212.254 37.72 212.254 37.16V33.05H213.694V41H212.329V38.855L212.554 39.425C212.294 39.955 211.904 40.365 211.384 40.655C210.864 40.945 210.279 41.09 209.629 41.09ZM216.435 41V33.05H217.815V35.21L217.68 34.67C217.9 34.12 218.27 33.7 218.79 33.41C219.31 33.12 219.95 32.975 220.71 32.975V34.37C220.65 34.36 220.59 34.355 220.53 34.355C220.48 34.355 220.43 34.355 220.38 34.355C219.61 34.355 219 34.585 218.55 35.045C218.1 35.505 217.875 36.17 217.875 37.04V41H216.435ZM226.826 41V30.5H228.056L235.001 39.125H234.356V30.5H235.856V41H234.626L227.681 32.375H228.326V41H226.826ZM240.349 35.465H245.764V36.755H240.349V35.465ZM240.499 41H238.999V30.5H246.409V31.805H240.499V41ZM250.679 41V31.805H247.079V30.5H255.764V31.805H252.164V41H250.679Z" fill="#8F8F8F"/>
</svg>
