<svg width="116" height="26" viewBox="0 0 116 26" fill="none" xmlns="http://www.w3.org/2000/svg">
<g filter="url(#filter0_d_123_27)">
<path d="M7.328 14.128C6.53867 14.128 5.89867 13.8667 5.408 13.344C4.91733 12.8213 4.672 12.1387 4.672 11.296V10.928C4.672 10.8213 4.72533 10.768 4.832 10.768H5.616C5.72267 10.768 5.776 10.8213 5.776 10.928V11.248C5.776 11.8133 5.92 12.272 6.208 12.624C6.496 12.9653 6.86933 13.136 7.328 13.136C7.776 13.136 8.14933 12.9707 8.448 12.64C8.74667 12.3093 8.896 11.872 8.896 11.328C8.896 10.9653 8.82133 10.656 8.672 10.4C8.53333 10.1333 8.34667 9.904 8.112 9.712C7.888 9.50933 7.50933 9.20533 6.976 8.8C6.44267 8.40533 6.02133 8.06933 5.712 7.792C5.40267 7.504 5.14667 7.16267 4.944 6.768C4.752 6.37333 4.656 5.90933 4.656 5.376C4.656 4.544 4.896 3.888 5.376 3.408C5.856 2.91733 6.48 2.672 7.248 2.672C8.05867 2.672 8.704 2.93867 9.184 3.472C9.67467 3.99467 9.92 4.69333 9.92 5.568V5.968C9.92 6.07467 9.86667 6.128 9.76 6.128H8.96C8.85333 6.128 8.8 6.07467 8.8 5.968V5.552C8.8 4.98667 8.656 4.53333 8.368 4.192C8.09067 3.84 7.71733 3.664 7.248 3.664C6.82133 3.664 6.46933 3.81867 6.192 4.128C5.91467 4.42667 5.776 4.85333 5.776 5.408C5.776 5.73867 5.83467 6.032 5.952 6.288C6.08 6.53333 6.26667 6.768 6.512 6.992C6.75733 7.216 7.12 7.50933 7.6 7.872C8.24 8.34133 8.71467 8.72533 9.024 9.024C9.344 9.312 9.58933 9.632 9.76 9.984C9.93067 10.3253 10.016 10.7413 10.016 11.232C10.016 12.1067 9.76533 12.8107 9.264 13.344C8.76267 13.8667 8.11733 14.128 7.328 14.128ZM16.4643 10.224C16.4643 10.3307 16.4109 10.384 16.3043 10.384H12.6562C12.6136 10.384 12.5923 10.4053 12.5923 10.448V11.616C12.5923 12.064 12.7149 12.432 12.9603 12.72C13.2163 12.9973 13.5469 13.136 13.9523 13.136C14.2936 13.136 14.5816 13.0347 14.8163 12.832C15.0616 12.6187 15.2216 12.3467 15.2963 12.016C15.3283 11.92 15.3869 11.872 15.4723 11.872L16.2723 11.904C16.3149 11.904 16.3523 11.92 16.3843 11.952C16.4163 11.984 16.4269 12.0267 16.4163 12.08C16.3309 12.7093 16.0696 13.2107 15.6323 13.584C15.2056 13.9467 14.6456 14.128 13.9523 14.128C13.1949 14.128 12.5869 13.904 12.1283 13.456C11.6803 13.008 11.4563 12.416 11.4563 11.68V8.224C11.4563 7.49867 11.6803 6.912 12.1283 6.464C12.5869 6.00533 13.1949 5.776 13.9523 5.776C14.7203 5.776 15.3283 6.00533 15.7763 6.464C16.2349 6.912 16.4643 7.49867 16.4643 8.224V10.224ZM13.9523 6.768C13.5469 6.768 13.2163 6.912 12.9603 7.2C12.7149 7.47733 12.5923 7.84533 12.5923 8.304V9.376C12.5923 9.41867 12.6136 9.44 12.6562 9.44H15.2803C15.3229 9.44 15.3443 9.41867 15.3443 9.376V8.304C15.3443 7.84533 15.2163 7.47733 14.9603 7.2C14.7043 6.912 14.3683 6.768 13.9523 6.768ZM18.2119 14C18.1052 14 18.0519 13.9467 18.0519 13.84V2.96C18.0519 2.85333 18.1052 2.8 18.2119 2.8H19.0279C19.1345 2.8 19.1879 2.85333 19.1879 2.96V13.84C19.1879 13.9467 19.1345 14 19.0279 14H18.2119ZM21.1025 14C20.9958 14 20.9425 13.9467 20.9425 13.84V2.96C20.9425 2.85333 20.9958 2.8 21.1025 2.8H21.9185C22.0252 2.8 22.0785 2.85333 22.0785 2.96V13.84C22.0785 13.9467 22.0252 14 21.9185 14H21.1025ZM29.9803 6.592C29.9803 6.69867 29.9269 6.752 29.8203 6.752H28.6043C28.5616 6.752 28.5403 6.77333 28.5403 6.816V11.712C28.5403 12.2027 28.6256 12.544 28.7963 12.736C28.9669 12.9173 29.2283 13.0027 29.5803 12.992H29.7403C29.8469 12.992 29.9003 13.0453 29.9003 13.152V13.84C29.9003 13.9467 29.8469 14 29.7403 14H29.3403C28.7109 14 28.2309 13.8667 27.9003 13.6C27.5803 13.3227 27.4203 12.8053 27.4203 12.048V6.816C27.4203 6.77333 27.3989 6.752 27.3563 6.752H26.7323C26.6256 6.752 26.5723 6.69867 26.5723 6.592V6.064C26.5723 5.95733 26.6256 5.904 26.7323 5.904H27.3563C27.3989 5.904 27.4203 5.88267 27.4203 5.84V4.048C27.4203 3.94133 27.4736 3.888 27.5803 3.888H28.3803C28.4869 3.888 28.5403 3.94133 28.5403 4.048V5.84C28.5403 5.88267 28.5616 5.904 28.6043 5.904H29.8203C29.9269 5.904 29.9803 5.95733 29.9803 6.064V6.592ZM33.7339 14.128C32.9659 14.128 32.3525 13.904 31.8939 13.456C31.4459 13.008 31.2219 12.416 31.2219 11.68V8.24C31.2219 7.51467 31.4512 6.92267 31.9099 6.464C32.3685 6.00533 32.9765 5.776 33.7339 5.776C34.5019 5.776 35.1152 6.00533 35.5739 6.464C36.0325 6.92267 36.2619 7.51467 36.2619 8.24V11.68C36.2619 12.416 36.0325 13.008 35.5739 13.456C35.1152 13.904 34.5019 14.128 33.7339 14.128ZM33.7339 13.12C34.1392 13.12 34.4699 12.9813 34.7259 12.704C34.9925 12.4267 35.1259 12.0587 35.1259 11.6V8.304C35.1259 7.84533 34.9925 7.47733 34.7259 7.2C34.4699 6.912 34.1392 6.768 33.7339 6.768C33.3285 6.768 32.9979 6.912 32.7419 7.2C32.4859 7.47733 32.3579 7.84533 32.3579 8.304V11.6C32.3579 12.0587 32.4859 12.4267 32.7419 12.704C32.9979 12.9813 33.3285 13.12 33.7339 13.12ZM44.0896 5.776C44.7616 5.776 45.3003 6.00533 45.7056 6.464C46.111 6.912 46.3136 7.49867 46.3136 8.224V11.68C46.3136 12.4267 46.111 13.024 45.7056 13.472C45.3003 13.9093 44.7616 14.128 44.0896 14.128C43.791 14.128 43.5083 14.0747 43.2416 13.968C42.975 13.8507 42.7403 13.6747 42.5376 13.44C42.5163 13.4187 42.495 13.4133 42.4736 13.424C42.463 13.4347 42.4576 13.4507 42.4576 13.472V16.944C42.4576 17.0507 42.4043 17.104 42.2976 17.104H41.4816C41.375 17.104 41.3216 17.0507 41.3216 16.944V6.064C41.3216 5.95733 41.375 5.904 41.4816 5.904H42.2976C42.4043 5.904 42.4576 5.95733 42.4576 6.064V6.432C42.4576 6.45333 42.4683 6.46933 42.4896 6.48C42.511 6.48 42.5323 6.46933 42.5536 6.448C42.7456 6.224 42.975 6.05867 43.2416 5.952C43.519 5.83467 43.8016 5.776 44.0896 5.776ZM45.1936 8.304C45.1936 7.84533 45.0603 7.47733 44.7936 7.2C44.5376 6.912 44.207 6.768 43.8016 6.768C43.407 6.768 43.0816 6.912 42.8256 7.2C42.5803 7.47733 42.4576 7.84533 42.4576 8.304V11.6C42.4576 12.0587 42.5803 12.432 42.8256 12.72C43.0816 12.9973 43.407 13.136 43.8016 13.136C44.207 13.136 44.5376 12.9973 44.7936 12.72C45.0603 12.432 45.1936 12.0587 45.1936 11.6V8.304ZM48.1494 14C48.0427 14 47.9894 13.9467 47.9894 13.84V2.96C47.9894 2.85333 48.0427 2.8 48.1494 2.8H48.9654C49.072 2.8 49.1254 2.85333 49.1254 2.96V13.84C49.1254 13.9467 49.072 14 48.9654 14H48.1494ZM53.344 5.776C54.0907 5.776 54.688 6.02133 55.136 6.512C55.584 6.992 55.808 7.63733 55.808 8.448V13.84C55.808 13.9467 55.7547 14 55.648 14H54.832C54.7253 14 54.672 13.9467 54.672 13.84V13.36C54.672 13.3387 54.6613 13.328 54.64 13.328C54.6293 13.3173 54.6133 13.3227 54.592 13.344C54.1973 13.8667 53.6053 14.128 52.816 14.128C52.2293 14.128 51.7173 13.9627 51.28 13.632C50.8533 13.2907 50.64 12.6933 50.64 11.84C50.64 10.9333 50.9013 10.272 51.424 9.856C51.9467 9.42933 52.6347 9.216 53.488 9.216H54.608C54.6507 9.216 54.672 9.19467 54.672 9.152V8.528C54.672 7.99467 54.5493 7.568 54.304 7.248C54.0587 6.928 53.728 6.768 53.312 6.768C52.992 6.768 52.7147 6.87467 52.48 7.088C52.256 7.30133 52.1227 7.57333 52.08 7.904C52.08 8.01067 52.0267 8.064 51.92 8.064L51.024 8.048C50.9707 8.048 50.928 8.032 50.896 8C50.8747 7.968 50.8693 7.93067 50.88 7.888C50.9333 7.25867 51.1893 6.752 51.648 6.368C52.1067 5.97333 52.672 5.776 53.344 5.776ZM53.056 13.136C53.4933 13.136 53.872 12.9973 54.192 12.72C54.512 12.432 54.672 12.0373 54.672 11.536V10.192C54.672 10.1493 54.6507 10.128 54.608 10.128H53.472C52.96 10.128 52.5547 10.2667 52.256 10.544C51.9573 10.8107 51.808 11.2107 51.808 11.744C51.808 12.2133 51.92 12.5653 52.144 12.8C52.3787 13.024 52.6827 13.136 53.056 13.136ZM60.4334 6.592C60.4334 6.69867 60.38 6.752 60.2734 6.752H59.0574C59.0147 6.752 58.9934 6.77333 58.9934 6.816V11.712C58.9934 12.2027 59.0787 12.544 59.2494 12.736C59.42 12.9173 59.6814 13.0027 60.0334 12.992H60.1934C60.3 12.992 60.3534 13.0453 60.3534 13.152V13.84C60.3534 13.9467 60.3 14 60.1934 14H59.7934C59.164 14 58.684 13.8667 58.3534 13.6C58.0334 13.3227 57.8734 12.8053 57.8734 12.048V6.816C57.8734 6.77333 57.852 6.752 57.8094 6.752H57.1854C57.0787 6.752 57.0254 6.69867 57.0254 6.592V6.064C57.0254 5.95733 57.0787 5.904 57.1854 5.904H57.8094C57.852 5.904 57.8734 5.88267 57.8734 5.84V4.048C57.8734 3.94133 57.9267 3.888 58.0334 3.888H58.8334C58.94 3.888 58.9934 3.94133 58.9934 4.048V5.84C58.9934 5.88267 59.0147 5.904 59.0574 5.904H60.2734C60.38 5.904 60.4334 5.95733 60.4334 6.064V6.592ZM64.427 3.664C64.0217 3.664 63.7337 3.80267 63.563 4.08C63.3923 4.34667 63.307 4.768 63.307 5.344V5.84C63.307 5.88267 63.3283 5.904 63.371 5.904H64.603C64.7097 5.904 64.763 5.95733 64.763 6.064V6.592C64.763 6.69867 64.7097 6.752 64.603 6.752H63.371C63.3283 6.752 63.307 6.77333 63.307 6.816V13.84C63.307 13.9467 63.2537 14 63.147 14H62.347C62.2403 14 62.187 13.9467 62.187 13.84V6.816C62.187 6.77333 62.1657 6.752 62.123 6.752H61.483C61.3763 6.752 61.323 6.69867 61.323 6.592V6.064C61.323 5.95733 61.3763 5.904 61.483 5.904H62.123C62.1657 5.904 62.187 5.88267 62.187 5.84V5.328C62.187 4.4 62.3577 3.728 62.699 3.312C63.0403 2.896 63.611 2.688 64.411 2.688H64.635C64.7417 2.688 64.795 2.74133 64.795 2.848L64.779 3.504C64.779 3.61067 64.7257 3.664 64.619 3.664H64.427ZM68.6245 14.128C67.8565 14.128 67.2432 13.904 66.7845 13.456C66.3365 13.008 66.1125 12.416 66.1125 11.68V8.24C66.1125 7.51467 66.3418 6.92267 66.8005 6.464C67.2592 6.00533 67.8672 5.776 68.6245 5.776C69.3925 5.776 70.0058 6.00533 70.4645 6.464C70.9232 6.92267 71.1525 7.51467 71.1525 8.24V11.68C71.1525 12.416 70.9232 13.008 70.4645 13.456C70.0058 13.904 69.3925 14.128 68.6245 14.128ZM68.6245 13.12C69.0298 13.12 69.3605 12.9813 69.6165 12.704C69.8832 12.4267 70.0165 12.0587 70.0165 11.6V8.304C70.0165 7.84533 69.8832 7.47733 69.6165 7.2C69.3605 6.912 69.0298 6.768 68.6245 6.768C68.2192 6.768 67.8885 6.912 67.6325 7.2C67.3765 7.47733 67.2485 7.84533 67.2485 8.304V11.6C67.2485 12.0587 67.3765 12.4267 67.6325 12.704C67.8885 12.9813 68.2192 13.12 68.6245 13.12ZM75.6651 5.824C75.9318 5.824 76.1611 5.88267 76.3531 6C76.4278 6.04267 76.4545 6.112 76.4331 6.208L76.2411 7.04C76.2305 7.136 76.1665 7.168 76.0491 7.136C75.9211 7.072 75.7611 7.04 75.5691 7.04C75.4838 7.04 75.4198 7.04533 75.3771 7.056C74.9931 7.07733 74.6785 7.28 74.4331 7.664C74.1878 8.03733 74.0651 8.496 74.0651 9.04V13.84C74.0651 13.9467 74.0118 14 73.9051 14H73.0891C72.9825 14 72.9291 13.9467 72.9291 13.84V6.064C72.9291 5.95733 72.9825 5.904 73.0891 5.904H73.9051C74.0118 5.904 74.0651 5.95733 74.0651 6.064V7.024C74.0651 7.056 74.0705 7.072 74.0811 7.072C74.1025 7.072 74.1238 7.06133 74.1451 7.04C74.4545 6.22933 74.9611 5.824 75.6651 5.824ZM84.081 5.792C84.721 5.792 85.217 6.02667 85.569 6.496C85.921 6.96533 86.097 7.616 86.097 8.448V13.84C86.097 13.9467 86.0437 14 85.937 14H85.137C85.0303 14 84.977 13.9467 84.977 13.84V8.544C84.977 8 84.8597 7.57333 84.625 7.264C84.401 6.944 84.1023 6.784 83.729 6.784C83.3237 6.784 83.0037 6.93867 82.769 7.248C82.5343 7.55733 82.417 7.97867 82.417 8.512V13.84C82.417 13.9467 82.3637 14 82.257 14H81.441C81.3343 14 81.281 13.9467 81.281 13.84V8.544C81.281 8 81.1637 7.57333 80.929 7.264C80.705 6.944 80.4117 6.784 80.049 6.784C79.6437 6.784 79.3183 6.93867 79.073 7.248C78.8383 7.55733 78.721 7.97867 78.721 8.512V13.84C78.721 13.9467 78.6677 14 78.561 14H77.761C77.6543 14 77.601 13.9467 77.601 13.84V6.064C77.601 5.95733 77.6543 5.904 77.761 5.904H78.561C78.6677 5.904 78.721 5.95733 78.721 6.064V6.56C78.721 6.58133 78.7263 6.59733 78.737 6.608C78.7583 6.608 78.7797 6.59733 78.801 6.576C79.0037 6.30933 79.2437 6.112 79.521 5.984C79.7983 5.856 80.0917 5.792 80.401 5.792C80.8063 5.792 81.1583 5.89333 81.457 6.096C81.7557 6.288 81.985 6.56533 82.145 6.928C82.1557 6.94933 82.1717 6.96 82.193 6.96C82.2143 6.96 82.2303 6.944 82.241 6.912C82.433 6.528 82.6943 6.24533 83.025 6.064C83.3557 5.88267 83.7077 5.792 84.081 5.792ZM90.088 14.08C89.352 14.08 88.76 13.8933 88.312 13.52C87.8747 13.136 87.656 12.6293 87.656 12V11.888C87.656 11.7813 87.7093 11.728 87.816 11.728H88.584C88.6907 11.728 88.744 11.7813 88.744 11.888V11.984C88.744 12.3253 88.8667 12.6133 89.112 12.848C89.368 13.0827 89.6987 13.2 90.104 13.2C90.488 13.2 90.7973 13.0827 91.032 12.848C91.2667 12.6133 91.384 12.3147 91.384 11.952C91.384 11.6747 91.3093 11.4453 91.16 11.264C91.0107 11.072 90.8347 10.9227 90.632 10.816C90.44 10.7093 90.1467 10.5707 89.752 10.4C89.336 10.2293 88.9893 10.064 88.712 9.904C88.4453 9.73333 88.2107 9.49867 88.008 9.2C87.816 8.89067 87.72 8.50133 87.72 8.032C87.72 7.34933 87.928 6.81067 88.344 6.416C88.7707 6.02133 89.3413 5.824 90.056 5.824C90.7813 5.824 91.3573 6.02667 91.784 6.432C92.2107 6.83733 92.424 7.376 92.424 8.048V8.096C92.424 8.20267 92.3707 8.256 92.264 8.256H91.528C91.4213 8.256 91.368 8.20267 91.368 8.096V8C91.368 7.63733 91.2453 7.33867 91 7.104C90.7653 6.86933 90.456 6.752 90.072 6.752C89.688 6.752 89.3787 6.87467 89.144 7.12C88.92 7.35467 88.808 7.648 88.808 8C88.808 8.256 88.8773 8.47467 89.016 8.656C89.1547 8.82667 89.3253 8.97067 89.528 9.088C89.7307 9.19467 90.0133 9.328 90.376 9.488C90.8133 9.68 91.1707 9.86133 91.448 10.032C91.736 10.2027 91.9867 10.4427 92.2 10.752C92.4133 11.0613 92.52 11.4453 92.52 11.904C92.52 12.5653 92.3013 13.0933 91.864 13.488C91.4267 13.8827 90.8347 14.08 90.088 14.08Z" fill="#2923C6"/>
</g>
<path d="M103.333 10H112.667M112.667 10L108 5.33334M112.667 10L108 14.6667" stroke="#2923C6" stroke-width="1.6" stroke-linecap="round" stroke-linejoin="round"/>
<defs>
<filter id="filter0_d_123_27" x="0.655762" y="2.672" width="95.8643" height="22.432" filterUnits="userSpaceOnUse" color-interpolation-filters="sRGB">
<feFlood flood-opacity="0" result="BackgroundImageFix"/>
<feColorMatrix in="SourceAlpha" type="matrix" values="0 0 0 0 0 0 0 0 0 0 0 0 0 0 0 0 0 0 127 0" result="hardAlpha"/>
<feOffset dy="4"/>
<feGaussianBlur stdDeviation="2"/>
<feComposite in2="hardAlpha" operator="out"/>
<feColorMatrix type="matrix" values="0 0 0 0 0 0 0 0 0 0 0 0 0 0 0 0 0 0 0.25 0"/>
<feBlend mode="normal" in2="BackgroundImageFix" result="effect1_dropShadow_123_27"/>
<feBlend mode="normal" in="SourceGraphic" in2="effect1_dropShadow_123_27" result="shape"/>
</filter>
</defs>
</svg>
