<svg width="168" height="32" viewBox="0 0 168 32" fill="none" xmlns="http://www.w3.org/2000/svg">
<path d="M0.835938 11.6172C0.846354 11.4974 0.864583 11.362 0.890625 11.2109C0.916667 11.0859 0.950521 10.9375 0.992188 10.7656C1.03906 10.5885 1.10677 10.3984 1.19531 10.1953C1.47656 10.2891 1.76302 10.3724 2.05469 10.4453C2.30469 10.5078 2.57812 10.5651 2.875 10.6172C3.17188 10.6693 3.45573 10.6953 3.72656 10.6953C4.13802 10.6953 4.48177 10.6641 4.75781 10.6016C5.03906 10.5391 5.26302 10.4479 5.42969 10.3281C5.60156 10.2031 5.72396 10.0495 5.79688 9.86719C5.86979 9.67969 5.90625 9.46354 5.90625 9.21875C5.90625 8.94271 5.86719 8.70833 5.78906 8.51562C5.71615 8.32292 5.60156 8.15625 5.44531 8.01562C5.29427 7.875 5.09896 7.75521 4.85938 7.65625C4.61979 7.55729 4.33594 7.46094 4.00781 7.36719C3.4349 7.21094 2.95052 7.04167 2.55469 6.85938C2.15885 6.67188 1.83594 6.45833 1.58594 6.21875C1.34115 5.97917 1.16406 5.70833 1.05469 5.40625C0.945312 5.09896 0.890625 4.75 0.890625 4.35938C0.890625 3.79688 0.976562 3.3151 1.14844 2.91406C1.32552 2.51302 1.57292 2.1849 1.89062 1.92969C2.21354 1.67448 2.60156 1.48698 3.05469 1.36719C3.51302 1.2474 4.02344 1.1875 4.58594 1.1875C5.01823 1.1875 5.39583 1.22135 5.71875 1.28906C6.04688 1.35677 6.32292 1.42969 6.54688 1.50781C6.80729 1.60156 7.03385 1.70833 7.22656 1.82812C7.21094 1.94792 7.17969 2.07812 7.13281 2.21875C7.09115 2.33854 7.03385 2.47917 6.96094 2.64062C6.88802 2.80208 6.78646 2.97656 6.65625 3.16406C6.5 3.0599 6.31771 2.96615 6.10938 2.88281C5.92708 2.8099 5.70573 2.74479 5.44531 2.6875C5.1901 2.625 4.89323 2.59375 4.55469 2.59375C4.1849 2.59375 3.8724 2.6224 3.61719 2.67969C3.36719 2.73698 3.16146 2.82812 3 2.95312C2.83854 3.07292 2.72135 3.22656 2.64844 3.41406C2.58073 3.59635 2.54688 3.8151 2.54688 4.07031C2.54688 4.35677 2.58333 4.59635 2.65625 4.78906C2.72917 4.97656 2.84635 5.13802 3.00781 5.27344C3.16927 5.40365 3.3776 5.51823 3.63281 5.61719C3.89323 5.71615 4.20573 5.81771 4.57031 5.92188C5.11719 6.07292 5.58333 6.23438 5.96875 6.40625C6.35417 6.57812 6.66667 6.77865 6.90625 7.00781C7.15104 7.23698 7.32812 7.51042 7.4375 7.82812C7.55208 8.14062 7.60938 8.51823 7.60938 8.96094C7.60938 9.50781 7.53906 9.98438 7.39844 10.3906C7.25781 10.7917 7.03385 11.1276 6.72656 11.3984C6.41927 11.6693 6.02344 11.8698 5.53906 12C5.05469 12.1354 4.47135 12.2031 3.78906 12.2031C3.38281 12.2031 3 12.1719 2.64062 12.1094C2.28125 12.0521 1.96875 11.987 1.70312 11.9141C1.38542 11.8255 1.09635 11.7266 0.835938 11.6172ZM9.05469 8.08594C9.05469 7.33594 9.14583 6.6901 9.32812 6.14844C9.51042 5.60677 9.76562 5.16146 10.0938 4.8125C10.4219 4.46354 10.8125 4.20833 11.2656 4.04688C11.724 3.88021 12.2266 3.79688 12.7734 3.79688C13.2786 3.79688 13.7292 3.88281 14.125 4.05469C14.526 4.22135 14.8646 4.45833 15.1406 4.76562C15.4167 5.07292 15.6276 5.4401 15.7734 5.86719C15.9193 6.29427 15.9922 6.76562 15.9922 7.28125C15.9922 7.45833 15.9844 7.6224 15.9688 7.77344C15.9531 7.92448 15.9349 8.05469 15.9141 8.16406C15.8932 8.29427 15.8698 8.41146 15.8438 8.51562L10.7188 8.49219C10.724 8.95573 10.7734 9.34115 10.8672 9.64844C10.9609 9.95052 11.099 10.1901 11.2812 10.3672C11.4688 10.5443 11.7031 10.6693 11.9844 10.7422C12.2656 10.8099 12.599 10.8438 12.9844 10.8438C13.3125 10.8438 13.6068 10.8229 13.8672 10.7812C14.1276 10.7396 14.349 10.6901 14.5312 10.6328C14.7396 10.5703 14.9271 10.4974 15.0938 10.4141C15.1719 10.5964 15.2318 10.7656 15.2734 10.9219C15.3203 11.0781 15.3542 11.2135 15.375 11.3281C15.3958 11.4635 15.4115 11.5833 15.4219 11.6875C15.25 11.776 15.0417 11.8542 14.7969 11.9219C14.5885 11.9792 14.3333 12.0312 14.0312 12.0781C13.7292 12.1302 13.3802 12.1562 12.9844 12.1562C12.3594 12.1562 11.8021 12.0859 11.3125 11.9453C10.8281 11.8047 10.4167 11.5755 10.0781 11.2578C9.74479 10.9349 9.48958 10.5156 9.3125 10C9.14062 9.47917 9.05469 8.84115 9.05469 8.08594ZM14.3203 7.35156V7.08594C14.3203 6.75781 14.2786 6.46875 14.1953 6.21875C14.1172 5.96354 14.0078 5.75 13.8672 5.57812C13.7266 5.40625 13.5599 5.27604 13.3672 5.1875C13.1745 5.09896 12.9661 5.05469 12.7422 5.05469C12.4141 5.05469 12.125 5.09896 11.875 5.1875C11.625 5.27083 11.4141 5.40625 11.2422 5.59375C11.0755 5.77604 10.9505 6.01302 10.8672 6.30469C10.7839 6.59635 10.7422 6.94531 10.7422 7.35156H14.3203ZM17.5781 0.757812H19.1953V10.6875L19.6562 11.0156V12H19.2109L19.1953 11.9844V12C18.6797 12 18.2812 11.8958 18 11.6875C17.7188 11.4792 17.5781 11.1354 17.5781 10.6562V0.757812ZM21.3594 0.757812H22.9766V10.6875L23.4375 11.0156V12H22.9922L22.9766 11.9844V12C22.4609 12 22.0625 11.8958 21.7812 11.6875C21.5 11.4792 21.3594 11.1354 21.3594 10.6562V0.757812ZM28.8516 4.01562H30.6094L32.1328 9.85156L32.4688 11.4141L32.8125 9.85156L34.3828 4.01562H36.1953L32.6406 15.6406H30.9453L32.25 12H31.25L28.8516 4.01562ZM36.8906 8.00781C36.8906 7.32031 36.9818 6.71354 37.1641 6.1875C37.3516 5.66146 37.612 5.22135 37.9453 4.86719C38.2839 4.51302 38.6849 4.24479 39.1484 4.0625C39.6172 3.88021 40.1328 3.78906 40.6953 3.78906C41.2734 3.78906 41.7943 3.875 42.2578 4.04688C42.7214 4.21354 43.1146 4.46875 43.4375 4.8125C43.7604 5.15625 44.0078 5.58594 44.1797 6.10156C44.3516 6.61198 44.4375 7.21094 44.4375 7.89844C44.4375 8.58594 44.349 9.19531 44.1719 9.72656C44 10.2578 43.75 10.7031 43.4219 11.0625C43.099 11.4219 42.7057 11.6953 42.2422 11.8828C41.7839 12.0651 41.2682 12.1562 40.6953 12.1562C40.1016 12.1562 39.5677 12.0703 39.0938 11.8984C38.625 11.7214 38.2266 11.4609 37.8984 11.1172C37.5755 10.7682 37.3255 10.3359 37.1484 9.82031C36.9766 9.29948 36.8906 8.69531 36.8906 8.00781ZM40.6953 10.8672C41.0391 10.8672 41.3359 10.7943 41.5859 10.6484C41.8411 10.4974 42.0495 10.2917 42.2109 10.0312C42.3724 9.76562 42.4922 9.45312 42.5703 9.09375C42.6484 8.72917 42.6875 8.33073 42.6875 7.89844C42.6875 6.96615 42.5286 6.25521 42.2109 5.76562C41.8932 5.27604 41.388 5.03125 40.6953 5.03125C40.3464 5.03125 40.0417 5.10677 39.7812 5.25781C39.526 5.40365 39.3125 5.60938 39.1406 5.875C38.974 6.14062 38.849 6.45573 38.7656 6.82031C38.6823 7.1849 38.6406 7.58073 38.6406 8.00781C38.6406 8.95052 38.8073 9.66406 39.1406 10.1484C39.4792 10.6276 39.9974 10.8672 40.6953 10.8672ZM45.9062 4.01562H47.5781V9.23438C47.5781 9.79167 47.6875 10.2057 47.9062 10.4766C48.125 10.7422 48.4922 10.875 49.0078 10.875C49.2578 10.875 49.4844 10.8542 49.6875 10.8125C49.8906 10.7708 50.0677 10.7214 50.2188 10.6641C50.3906 10.6016 50.5443 10.5286 50.6797 10.4453V4.01562H52.3594V10.7109L53.0547 11.5078V12H51.5469L50.9297 11.3828H50.6328C50.5911 11.4141 50.513 11.4714 50.3984 11.5547C50.2839 11.638 50.1354 11.7266 49.9531 11.8203C49.776 11.9089 49.5703 11.987 49.3359 12.0547C49.1016 12.1224 48.8464 12.1562 48.5703 12.1562C48.1328 12.1562 47.7474 12.0911 47.4141 11.9609C47.0807 11.8307 46.8021 11.6458 46.5781 11.4062C46.3542 11.1615 46.1849 10.8698 46.0703 10.5312C45.9609 10.1875 45.9062 9.80469 45.9062 9.38281V4.01562ZM55.6562 3.92969L56.4609 4.77344C56.5182 4.64323 56.5911 4.52083 56.6797 4.40625C56.7734 4.28646 56.8802 4.18229 57 4.09375C57.125 4.00521 57.263 3.9349 57.4141 3.88281C57.5703 3.83073 57.7396 3.80469 57.9219 3.80469C58.0729 3.80469 58.2188 3.81771 58.3594 3.84375C58.5 3.86458 58.6536 3.90365 58.8203 3.96094C58.8255 3.97135 58.8307 4.01302 58.8359 4.08594C58.8464 4.15885 58.8516 4.25 58.8516 4.35938C58.8516 4.44271 58.8464 4.54167 58.8359 4.65625C58.8255 4.76562 58.8073 4.88021 58.7812 5C58.7604 5.11458 58.7266 5.22917 58.6797 5.34375C58.638 5.45833 58.5833 5.55729 58.5156 5.64062L58.3672 5.67969C58.263 5.6276 58.1458 5.58333 58.0156 5.54688C57.8906 5.51042 57.7604 5.49219 57.625 5.49219C57.4167 5.49219 57.2422 5.50781 57.1016 5.53906C56.9609 5.5651 56.8464 5.59375 56.7578 5.625C56.6536 5.66146 56.5703 5.70312 56.5078 5.75V12H54.8359V5.44531L54.2188 4.8125V3.92969H55.6562ZM64.0625 9.71875C64.0625 9.28646 64.125 8.91927 64.25 8.61719C64.375 8.3151 64.5573 8.06771 64.7969 7.875C65.0417 7.68229 65.3359 7.53906 65.6797 7.44531C66.0286 7.34635 66.4271 7.28385 66.875 7.25781L68.6172 7.16406V6.53906C68.6172 6.25781 68.5911 6.02604 68.5391 5.84375C68.4922 5.66146 68.4115 5.51562 68.2969 5.40625C68.1823 5.29688 68.0286 5.22135 67.8359 5.17969C67.6484 5.13281 67.4141 5.10938 67.1328 5.10938C66.8516 5.10938 66.5833 5.14062 66.3281 5.20312C66.0781 5.26562 65.8594 5.33333 65.6719 5.40625C65.4479 5.49479 65.2422 5.59375 65.0547 5.70312C64.9401 5.54167 64.849 5.38802 64.7812 5.24219C64.7135 5.09115 64.6615 4.95573 64.625 4.83594C64.5781 4.70052 64.5469 4.57031 64.5312 4.44531C64.7812 4.32031 65.0495 4.21094 65.3359 4.11719C65.5859 4.03385 65.8724 3.95833 66.1953 3.89062C66.5234 3.82292 66.8672 3.78906 67.2266 3.78906C67.8203 3.78906 68.3125 3.84115 68.7031 3.94531C69.0938 4.04948 69.4036 4.20833 69.6328 4.42188C69.8672 4.63021 70.0286 4.89583 70.1172 5.21875C70.2109 5.53646 70.2578 5.91406 70.2578 6.35156V10.7109L70.9141 11.5078V12H69.4688L68.8672 11.3047H68.5859C68.5599 11.3307 68.4896 11.3906 68.375 11.4844C68.2656 11.5729 68.1224 11.6693 67.9453 11.7734C67.7734 11.8724 67.5755 11.9609 67.3516 12.0391C67.1328 12.1172 66.8984 12.1562 66.6484 12.1562C66.2578 12.1562 65.9036 12.099 65.5859 11.9844C65.2682 11.8646 64.9948 11.6979 64.7656 11.4844C64.5417 11.2656 64.3672 11.0078 64.2422 10.7109C64.1224 10.4089 64.0625 10.0781 64.0625 9.71875ZM65.7656 9.57812C65.7656 9.81771 65.7995 10.0182 65.8672 10.1797C65.9349 10.3359 66.0286 10.4609 66.1484 10.5547C66.2734 10.6484 66.4219 10.7135 66.5938 10.75C66.7708 10.7865 66.9661 10.8047 67.1797 10.8047C67.3776 10.8047 67.5625 10.7812 67.7344 10.7344C67.9115 10.6823 68.0651 10.625 68.1953 10.5625C68.3464 10.4948 68.487 10.4141 68.6172 10.3203V8.21875L67.0469 8.32031C66.8021 8.33594 66.5964 8.3776 66.4297 8.44531C66.2682 8.51302 66.138 8.60156 66.0391 8.71094C65.9401 8.82031 65.8698 8.95052 65.8281 9.10156C65.7865 9.2474 65.7656 9.40625 65.7656 9.57812ZM73.375 3.92969L74.1797 4.77344C74.237 4.64323 74.3099 4.52083 74.3984 4.40625C74.4922 4.28646 74.599 4.18229 74.7188 4.09375C74.8438 4.00521 74.9818 3.9349 75.1328 3.88281C75.2891 3.83073 75.4583 3.80469 75.6406 3.80469C75.7917 3.80469 75.9375 3.81771 76.0781 3.84375C76.2188 3.86458 76.3724 3.90365 76.5391 3.96094C76.5443 3.97135 76.5495 4.01302 76.5547 4.08594C76.5651 4.15885 76.5703 4.25 76.5703 4.35938C76.5703 4.44271 76.5651 4.54167 76.5547 4.65625C76.5443 4.76562 76.526 4.88021 76.5 5C76.4792 5.11458 76.4453 5.22917 76.3984 5.34375C76.3568 5.45833 76.3021 5.55729 76.2344 5.64062L76.0859 5.67969C75.9818 5.6276 75.8646 5.58333 75.7344 5.54688C75.6094 5.51042 75.4792 5.49219 75.3438 5.49219C75.1354 5.49219 74.9609 5.50781 74.8203 5.53906C74.6797 5.5651 74.5651 5.59375 74.4766 5.625C74.3724 5.66146 74.2891 5.70312 74.2266 5.75V12H72.5547V5.44531L71.9375 4.8125V3.92969H73.375ZM78.2188 5.22656H77.1953C77.1901 5.16927 77.1849 5.10677 77.1797 5.03906C77.1745 4.98177 77.1693 4.91406 77.1641 4.83594C77.1641 4.75781 77.1641 4.67188 77.1641 4.57812C77.1641 4.48438 77.1667 4.39844 77.1719 4.32031C77.1771 4.23698 77.1849 4.13542 77.1953 4.01562H78.2188V2.77344L79.1172 1.75781H79.8125V4.01562H82.0234C82.0339 4.06771 82.0417 4.13021 82.0469 4.20312C82.0573 4.27604 82.0625 4.34635 82.0625 4.41406C82.0625 4.53385 82.0495 4.64323 82.0234 4.74219C82.0026 4.84115 81.9792 4.92708 81.9531 5C81.9219 5.08333 81.8854 5.15885 81.8438 5.22656H79.8125V9.75781C79.8125 10.138 79.875 10.4141 80 10.5859C80.1302 10.7578 80.3359 10.8438 80.6172 10.8438C80.737 10.8438 80.862 10.8307 80.9922 10.8047C81.1276 10.7734 81.2552 10.737 81.375 10.6953C81.5104 10.6484 81.6484 10.5964 81.7891 10.5391C81.8932 10.6745 81.974 10.8073 82.0312 10.9375C82.0938 11.0677 82.138 11.1849 82.1641 11.2891C82.1953 11.4089 82.2135 11.5208 82.2188 11.625C82.0729 11.724 81.9089 11.8125 81.7266 11.8906C81.5651 11.9583 81.3724 12.0182 81.1484 12.0703C80.9245 12.1276 80.6667 12.1562 80.375 12.1562C79.9688 12.1562 79.6276 12.1042 79.3516 12C79.0807 11.901 78.8594 11.7526 78.6875 11.5547C78.5208 11.3516 78.401 11.1016 78.3281 10.8047C78.2552 10.5026 78.2188 10.1562 78.2188 9.76562V5.22656ZM89.0938 2.66406C88.9479 2.66406 88.8099 2.63802 88.6797 2.58594C88.5547 2.53385 88.4427 2.46354 88.3438 2.375C88.25 2.28646 88.1745 2.1849 88.1172 2.07031C88.0599 1.95052 88.0312 1.82292 88.0312 1.6875C88.0312 1.54688 88.0599 1.41667 88.1172 1.29688C88.1745 1.17708 88.25 1.07292 88.3438 0.984375C88.4427 0.895833 88.5547 0.828125 88.6797 0.78125C88.8099 0.729167 88.9479 0.703125 89.0938 0.703125C89.2396 0.703125 89.3776 0.729167 89.5078 0.78125C89.638 0.828125 89.75 0.895833 89.8438 0.984375C89.9427 1.07292 90.0208 1.17708 90.0781 1.29688C90.1354 1.41667 90.1641 1.54688 90.1641 1.6875C90.1641 1.82292 90.1354 1.95052 90.0781 2.07031C90.0208 2.1849 89.9427 2.28646 89.8438 2.375C89.75 2.46354 89.638 2.53385 89.5078 2.58594C89.3776 2.63802 89.2396 2.66406 89.0938 2.66406ZM88.1953 4.01562H89.8203V10.6875L90.2812 11.0156V12H89.8359L89.8203 11.9844V12C89.3047 12 88.9036 11.8958 88.6172 11.6875C88.3359 11.4792 88.1953 11.1354 88.1953 10.6562V4.01562ZM92.3594 5.44531L91.7422 4.8125V3.92969H93.1797L93.8516 4.53906L94.0781 4.49219C94.1146 4.46094 94.1979 4.40625 94.3281 4.32812C94.4635 4.25 94.6276 4.17188 94.8203 4.09375C95.0182 4.01562 95.2422 3.94792 95.4922 3.89062C95.7422 3.82812 96.0052 3.79688 96.2812 3.79688C96.7188 3.79688 97.1068 3.86198 97.4453 3.99219C97.7891 4.1224 98.0781 4.3099 98.3125 4.55469C98.5469 4.79427 98.724 5.08333 98.8438 5.42188C98.9635 5.76042 99.0234 6.14062 99.0234 6.5625V12H97.3438V6.72656C97.3438 6.15885 97.224 5.74219 96.9844 5.47656C96.75 5.20573 96.375 5.07031 95.8594 5.07031C95.6042 5.07031 95.3672 5.09375 95.1484 5.14062C94.9297 5.18229 94.737 5.23177 94.5703 5.28906C94.3776 5.35156 94.1979 5.42448 94.0312 5.50781V12H92.3594V5.44531ZM106.047 5.22656H105.023C105.018 5.16927 105.013 5.10677 105.008 5.03906C105.003 4.98177 104.997 4.91406 104.992 4.83594C104.992 4.75781 104.992 4.67188 104.992 4.57812C104.992 4.48438 104.995 4.39844 105 4.32031C105.005 4.23698 105.013 4.13542 105.023 4.01562H106.047V2.77344L106.945 1.75781H107.641V4.01562H109.852C109.862 4.06771 109.87 4.13021 109.875 4.20312C109.885 4.27604 109.891 4.34635 109.891 4.41406C109.891 4.53385 109.878 4.64323 109.852 4.74219C109.831 4.84115 109.807 4.92708 109.781 5C109.75 5.08333 109.714 5.15885 109.672 5.22656H107.641V9.75781C107.641 10.138 107.703 10.4141 107.828 10.5859C107.958 10.7578 108.164 10.8438 108.445 10.8438C108.565 10.8438 108.69 10.8307 108.82 10.8047C108.956 10.7734 109.083 10.737 109.203 10.6953C109.339 10.6484 109.477 10.5964 109.617 10.5391C109.721 10.6745 109.802 10.8073 109.859 10.9375C109.922 11.0677 109.966 11.1849 109.992 11.2891C110.023 11.4089 110.042 11.5208 110.047 11.625C109.901 11.724 109.737 11.8125 109.555 11.8906C109.393 11.9583 109.201 12.0182 108.977 12.0703C108.753 12.1276 108.495 12.1562 108.203 12.1562C107.797 12.1562 107.456 12.1042 107.18 12C106.909 11.901 106.688 11.7526 106.516 11.5547C106.349 11.3516 106.229 11.1016 106.156 10.8047C106.083 10.5026 106.047 10.1562 106.047 9.76562V5.22656ZM111.5 0.75H113.18V3.375L113.102 4.57031H113.148C113.185 4.53906 113.271 4.48177 113.406 4.39844C113.547 4.3099 113.719 4.22135 113.922 4.13281C114.13 4.04427 114.362 3.96615 114.617 3.89844C114.878 3.83073 115.146 3.79688 115.422 3.79688C115.859 3.79688 116.245 3.86198 116.578 3.99219C116.917 4.1224 117.201 4.3099 117.43 4.55469C117.659 4.79427 117.831 5.08333 117.945 5.42188C118.065 5.76042 118.125 6.14062 118.125 6.5625V12H116.445V6.72656C116.445 6.15885 116.331 5.74219 116.102 5.47656C115.878 5.20573 115.505 5.07031 114.984 5.07031C114.734 5.07031 114.5 5.09375 114.281 5.14062C114.068 5.18229 113.878 5.23177 113.711 5.28906C113.518 5.35156 113.341 5.42448 113.18 5.50781V12H111.5V0.75ZM119.852 8.08594C119.852 7.33594 119.943 6.6901 120.125 6.14844C120.307 5.60677 120.562 5.16146 120.891 4.8125C121.219 4.46354 121.609 4.20833 122.062 4.04688C122.521 3.88021 123.023 3.79688 123.57 3.79688C124.076 3.79688 124.526 3.88281 124.922 4.05469C125.323 4.22135 125.661 4.45833 125.938 4.76562C126.214 5.07292 126.424 5.4401 126.57 5.86719C126.716 6.29427 126.789 6.76562 126.789 7.28125C126.789 7.45833 126.781 7.6224 126.766 7.77344C126.75 7.92448 126.732 8.05469 126.711 8.16406C126.69 8.29427 126.667 8.41146 126.641 8.51562L121.516 8.49219C121.521 8.95573 121.57 9.34115 121.664 9.64844C121.758 9.95052 121.896 10.1901 122.078 10.3672C122.266 10.5443 122.5 10.6693 122.781 10.7422C123.062 10.8099 123.396 10.8438 123.781 10.8438C124.109 10.8438 124.404 10.8229 124.664 10.7812C124.924 10.7396 125.146 10.6901 125.328 10.6328C125.536 10.5703 125.724 10.4974 125.891 10.4141C125.969 10.5964 126.029 10.7656 126.07 10.9219C126.117 11.0781 126.151 11.2135 126.172 11.3281C126.193 11.4635 126.208 11.5833 126.219 11.6875C126.047 11.776 125.839 11.8542 125.594 11.9219C125.385 11.9792 125.13 12.0312 124.828 12.0781C124.526 12.1302 124.177 12.1562 123.781 12.1562C123.156 12.1562 122.599 12.0859 122.109 11.9453C121.625 11.8047 121.214 11.5755 120.875 11.2578C120.542 10.9349 120.286 10.5156 120.109 10C119.938 9.47917 119.852 8.84115 119.852 8.08594ZM125.117 7.35156V7.08594C125.117 6.75781 125.076 6.46875 124.992 6.21875C124.914 5.96354 124.805 5.75 124.664 5.57812C124.523 5.40625 124.357 5.27604 124.164 5.1875C123.971 5.09896 123.763 5.05469 123.539 5.05469C123.211 5.05469 122.922 5.09896 122.672 5.1875C122.422 5.27083 122.211 5.40625 122.039 5.59375C121.872 5.77604 121.747 6.01302 121.664 6.30469C121.581 6.59635 121.539 6.94531 121.539 7.35156H125.117ZM132.461 4.8125V3.92969H133.898L134.57 4.60938L134.781 4.48438C134.807 4.45833 134.883 4.40885 135.008 4.33594C135.138 4.25781 135.299 4.17969 135.492 4.10156C135.685 4.01823 135.901 3.94531 136.141 3.88281C136.385 3.82031 136.633 3.78906 136.883 3.78906C137.346 3.78906 137.727 3.85677 138.023 3.99219C138.326 4.1276 138.589 4.32292 138.812 4.57812C138.896 4.51042 139.018 4.43229 139.18 4.34375C139.341 4.25 139.526 4.16146 139.734 4.07812C139.948 3.99479 140.177 3.92708 140.422 3.875C140.667 3.81771 140.914 3.78906 141.164 3.78906C141.602 3.78906 142 3.85417 142.359 3.98438C142.724 4.11458 143.034 4.30208 143.289 4.54688C143.549 4.78646 143.75 5.07552 143.891 5.41406C144.036 5.7526 144.109 6.13281 144.109 6.55469V12H142.43V6.71875C142.43 6.15625 142.279 5.73958 141.977 5.46875C141.674 5.19792 141.263 5.0625 140.742 5.0625C140.435 5.0625 140.146 5.08854 139.875 5.14062C139.609 5.1875 139.411 5.23958 139.281 5.29688C139.354 5.46354 139.411 5.64062 139.453 5.82812C139.495 6.01562 139.516 6.20573 139.516 6.39844V12H137.836V6.5625C137.836 6.05729 137.732 5.68229 137.523 5.4375C137.315 5.1875 136.958 5.0625 136.453 5.0625C136.214 5.0625 135.99 5.08594 135.781 5.13281C135.573 5.17448 135.393 5.22396 135.242 5.28125C135.065 5.34375 134.901 5.41406 134.75 5.49219V12H133.078V5.44531L132.461 4.8125ZM145.828 8.00781C145.828 7.32031 145.919 6.71354 146.102 6.1875C146.289 5.66146 146.549 5.22135 146.883 4.86719C147.221 4.51302 147.622 4.24479 148.086 4.0625C148.555 3.88021 149.07 3.78906 149.633 3.78906C150.211 3.78906 150.732 3.875 151.195 4.04688C151.659 4.21354 152.052 4.46875 152.375 4.8125C152.698 5.15625 152.945 5.58594 153.117 6.10156C153.289 6.61198 153.375 7.21094 153.375 7.89844C153.375 8.58594 153.286 9.19531 153.109 9.72656C152.938 10.2578 152.688 10.7031 152.359 11.0625C152.036 11.4219 151.643 11.6953 151.18 11.8828C150.721 12.0651 150.206 12.1562 149.633 12.1562C149.039 12.1562 148.505 12.0703 148.031 11.8984C147.562 11.7214 147.164 11.4609 146.836 11.1172C146.513 10.7682 146.263 10.3359 146.086 9.82031C145.914 9.29948 145.828 8.69531 145.828 8.00781ZM149.633 10.8672C149.977 10.8672 150.273 10.7943 150.523 10.6484C150.779 10.4974 150.987 10.2917 151.148 10.0312C151.31 9.76562 151.43 9.45312 151.508 9.09375C151.586 8.72917 151.625 8.33073 151.625 7.89844C151.625 6.96615 151.466 6.25521 151.148 5.76562C150.831 5.27604 150.326 5.03125 149.633 5.03125C149.284 5.03125 148.979 5.10677 148.719 5.25781C148.464 5.40365 148.25 5.60938 148.078 5.875C147.911 6.14062 147.786 6.45573 147.703 6.82031C147.62 7.1849 147.578 7.58073 147.578 8.00781C147.578 8.95052 147.745 9.66406 148.078 10.1484C148.417 10.6276 148.935 10.8672 149.633 10.8672ZM154.641 11.6406C154.641 11.5208 154.651 11.3906 154.672 11.25C154.688 11.1302 154.711 10.9948 154.742 10.8438C154.779 10.6875 154.831 10.526 154.898 10.3594C155.128 10.4479 155.367 10.526 155.617 10.5938C155.831 10.651 156.062 10.7057 156.312 10.7578C156.562 10.8047 156.81 10.8281 157.055 10.8281C157.273 10.8281 157.477 10.8203 157.664 10.8047C157.852 10.7891 158.013 10.7474 158.148 10.6797C158.289 10.6068 158.398 10.5 158.477 10.3594C158.555 10.2135 158.594 10.013 158.594 9.75781C158.594 9.45052 158.497 9.20833 158.305 9.03125C158.117 8.85417 157.789 8.72135 157.32 8.63281C156.836 8.53906 156.427 8.41406 156.094 8.25781C155.766 8.10156 155.497 7.92188 155.289 7.71875C155.086 7.51042 154.938 7.27865 154.844 7.02344C154.755 6.76823 154.711 6.49479 154.711 6.20312C154.711 5.76562 154.781 5.39323 154.922 5.08594C155.062 4.77865 155.266 4.53125 155.531 4.34375C155.802 4.15104 156.135 4.01302 156.531 3.92969C156.932 3.84115 157.391 3.79688 157.906 3.79688C158.266 3.79688 158.583 3.82292 158.859 3.875C159.141 3.92188 159.375 3.97396 159.562 4.03125C159.781 4.09896 159.971 4.17708 160.133 4.26562C160.117 4.38021 160.089 4.50521 160.047 4.64062C160.01 4.75521 159.961 4.88542 159.898 5.03125C159.841 5.17708 159.763 5.32552 159.664 5.47656C159.523 5.39323 159.362 5.32031 159.18 5.25781C159.023 5.20052 158.836 5.15104 158.617 5.10938C158.398 5.0625 158.148 5.03906 157.867 5.03906C157.648 5.03906 157.445 5.04948 157.258 5.07031C157.076 5.09115 156.917 5.13802 156.781 5.21094C156.651 5.28385 156.549 5.39583 156.477 5.54688C156.404 5.69271 156.367 5.89323 156.367 6.14844C156.367 6.27344 156.383 6.38802 156.414 6.49219C156.451 6.59115 156.518 6.68229 156.617 6.76562C156.721 6.84896 156.865 6.92708 157.047 7C157.234 7.06771 157.482 7.13542 157.789 7.20312C158.268 7.30729 158.667 7.42708 158.984 7.5625C159.307 7.69792 159.562 7.86198 159.75 8.05469C159.943 8.2474 160.078 8.47396 160.156 8.73438C160.24 8.98958 160.281 9.29427 160.281 9.64844C160.281 10.0286 160.221 10.3724 160.102 10.6797C159.982 10.987 159.794 11.25 159.539 11.4688C159.284 11.6875 158.956 11.8568 158.555 11.9766C158.154 12.0964 157.669 12.1562 157.102 12.1562C156.737 12.1562 156.404 12.1302 156.102 12.0781C155.805 12.026 155.547 11.9661 155.328 11.8984C155.073 11.8255 154.844 11.7396 154.641 11.6406ZM162.516 5.22656H161.492C161.487 5.16927 161.482 5.10677 161.477 5.03906C161.471 4.98177 161.466 4.91406 161.461 4.83594C161.461 4.75781 161.461 4.67188 161.461 4.57812C161.461 4.48438 161.464 4.39844 161.469 4.32031C161.474 4.23698 161.482 4.13542 161.492 4.01562H162.516V2.77344L163.414 1.75781H164.109V4.01562H166.32C166.331 4.06771 166.339 4.13021 166.344 4.20312C166.354 4.27604 166.359 4.34635 166.359 4.41406C166.359 4.53385 166.346 4.64323 166.32 4.74219C166.299 4.84115 166.276 4.92708 166.25 5C166.219 5.08333 166.182 5.15885 166.141 5.22656H164.109V9.75781C164.109 10.138 164.172 10.4141 164.297 10.5859C164.427 10.7578 164.633 10.8438 164.914 10.8438C165.034 10.8438 165.159 10.8307 165.289 10.8047C165.424 10.7734 165.552 10.737 165.672 10.6953C165.807 10.6484 165.945 10.5964 166.086 10.5391C166.19 10.6745 166.271 10.8073 166.328 10.9375C166.391 11.0677 166.435 11.1849 166.461 11.2891C166.492 11.4089 166.51 11.5208 166.516 11.625C166.37 11.724 166.206 11.8125 166.023 11.8906C165.862 11.9583 165.669 12.0182 165.445 12.0703C165.221 12.1276 164.964 12.1562 164.672 12.1562C164.266 12.1562 163.924 12.1042 163.648 12C163.378 11.901 163.156 11.7526 162.984 11.5547C162.818 11.3516 162.698 11.1016 162.625 10.8047C162.552 10.5026 162.516 10.1562 162.516 9.76562V5.22656ZM2.82812 18.7031C2.4375 18.7083 2.08333 18.7135 1.76562 18.7188C1.45312 18.724 1.1849 18.7318 0.960938 18.7422C0.700521 18.7526 0.46875 18.763 0.265625 18.7734C0.255208 18.7109 0.247396 18.6484 0.242188 18.5859C0.226562 18.4766 0.21875 18.3411 0.21875 18.1797C0.21875 18.0859 0.223958 17.974 0.234375 17.8438C0.25 17.7083 0.276042 17.5573 0.3125 17.3906H7.26562C7.27083 17.4427 7.27604 17.4974 7.28125 17.5547C7.28646 17.6016 7.29167 17.6562 7.29688 17.7188C7.30208 17.776 7.30469 17.8333 7.30469 17.8906C7.30469 17.9948 7.29427 18.1302 7.27344 18.2969C7.25781 18.4635 7.22656 18.6198 7.17969 18.7656C7.13802 18.7604 7.02865 18.7552 6.85156 18.75C6.67969 18.7396 6.47135 18.7318 6.22656 18.7266C5.98177 18.7214 5.71615 18.7161 5.42969 18.7109C5.14323 18.7057 4.86458 18.7031 4.59375 18.7031V28H2.82812V18.7031ZM9.59375 19.9297L10.3984 20.7734C10.4557 20.6432 10.5286 20.5208 10.6172 20.4062C10.7109 20.2865 10.8177 20.1823 10.9375 20.0938C11.0625 20.0052 11.2005 19.9349 11.3516 19.8828C11.5078 19.8307 11.6771 19.8047 11.8594 19.8047C12.0104 19.8047 12.1562 19.8177 12.2969 19.8438C12.4375 19.8646 12.5911 19.9036 12.7578 19.9609C12.763 19.9714 12.7682 20.013 12.7734 20.0859C12.7839 20.1589 12.7891 20.25 12.7891 20.3594C12.7891 20.4427 12.7839 20.5417 12.7734 20.6562C12.763 20.7656 12.7448 20.8802 12.7188 21C12.6979 21.1146 12.6641 21.2292 12.6172 21.3438C12.5755 21.4583 12.5208 21.5573 12.4531 21.6406L12.3047 21.6797C12.2005 21.6276 12.0833 21.5833 11.9531 21.5469C11.8281 21.5104 11.6979 21.4922 11.5625 21.4922C11.3542 21.4922 11.1797 21.5078 11.0391 21.5391C10.8984 21.5651 10.7839 21.5938 10.6953 21.625C10.5911 21.6615 10.5078 21.7031 10.4453 21.75V28H8.77344V21.4453L8.15625 20.8125V19.9297H9.59375ZM13.8906 20.0156H15.5625V25.2344C15.5625 25.7917 15.6719 26.2057 15.8906 26.4766C16.1094 26.7422 16.4766 26.875 16.9922 26.875C17.2422 26.875 17.4688 26.8542 17.6719 26.8125C17.875 26.7708 18.0521 26.7214 18.2031 26.6641C18.375 26.6016 18.5286 26.5286 18.6641 26.4453V20.0156H20.3438V26.7109L21.0391 27.5078V28H19.5312L18.9141 27.3828H18.6172C18.5755 27.4141 18.4974 27.4714 18.3828 27.5547C18.2682 27.638 18.1198 27.7266 17.9375 27.8203C17.7604 27.9089 17.5547 27.987 17.3203 28.0547C17.0859 28.1224 16.8307 28.1562 16.5547 28.1562C16.1172 28.1562 15.7318 28.0911 15.3984 27.9609C15.0651 27.8307 14.7865 27.6458 14.5625 27.4062C14.3385 27.1615 14.1693 26.8698 14.0547 26.5312C13.9453 26.1875 13.8906 25.8047 13.8906 25.3828V20.0156ZM22.25 27.6406C22.25 27.5208 22.2604 27.3906 22.2812 27.25C22.2969 27.1302 22.3203 26.9948 22.3516 26.8438C22.388 26.6875 22.4401 26.526 22.5078 26.3594C22.737 26.4479 22.9766 26.526 23.2266 26.5938C23.4401 26.651 23.6719 26.7057 23.9219 26.7578C24.1719 26.8047 24.4193 26.8281 24.6641 26.8281C24.8828 26.8281 25.0859 26.8203 25.2734 26.8047C25.4609 26.7891 25.6224 26.7474 25.7578 26.6797C25.8984 26.6068 26.0078 26.5 26.0859 26.3594C26.1641 26.2135 26.2031 26.013 26.2031 25.7578C26.2031 25.4505 26.1068 25.2083 25.9141 25.0312C25.7266 24.8542 25.3984 24.7214 24.9297 24.6328C24.4453 24.5391 24.0365 24.4141 23.7031 24.2578C23.375 24.1016 23.1068 23.9219 22.8984 23.7188C22.6953 23.5104 22.5469 23.2786 22.4531 23.0234C22.3646 22.7682 22.3203 22.4948 22.3203 22.2031C22.3203 21.7656 22.3906 21.3932 22.5312 21.0859C22.6719 20.7786 22.875 20.5312 23.1406 20.3438C23.4115 20.151 23.7448 20.013 24.1406 19.9297C24.5417 19.8411 25 19.7969 25.5156 19.7969C25.875 19.7969 26.1927 19.8229 26.4688 19.875C26.75 19.9219 26.9844 19.974 27.1719 20.0312C27.3906 20.099 27.5807 20.1771 27.7422 20.2656C27.7266 20.3802 27.6979 20.5052 27.6562 20.6406C27.6198 20.7552 27.5703 20.8854 27.5078 21.0312C27.4505 21.1771 27.3724 21.3255 27.2734 21.4766C27.1328 21.3932 26.9714 21.3203 26.7891 21.2578C26.6328 21.2005 26.4453 21.151 26.2266 21.1094C26.0078 21.0625 25.7578 21.0391 25.4766 21.0391C25.2578 21.0391 25.0547 21.0495 24.8672 21.0703C24.6849 21.0911 24.526 21.138 24.3906 21.2109C24.2604 21.2839 24.1589 21.3958 24.0859 21.5469C24.013 21.6927 23.9766 21.8932 23.9766 22.1484C23.9766 22.2734 23.9922 22.388 24.0234 22.4922C24.0599 22.5911 24.1276 22.6823 24.2266 22.7656C24.3307 22.849 24.474 22.9271 24.6562 23C24.8438 23.0677 25.0911 23.1354 25.3984 23.2031C25.8776 23.3073 26.276 23.4271 26.5938 23.5625C26.9167 23.6979 27.1719 23.862 27.3594 24.0547C27.5521 24.2474 27.6875 24.474 27.7656 24.7344C27.849 24.9896 27.8906 25.2943 27.8906 25.6484C27.8906 26.0286 27.8307 26.3724 27.7109 26.6797C27.5911 26.987 27.4036 27.25 27.1484 27.4688C26.8932 27.6875 26.5651 27.8568 26.1641 27.9766C25.763 28.0964 25.2786 28.1562 24.7109 28.1562C24.3464 28.1562 24.013 28.1302 23.7109 28.0781C23.4141 28.026 23.1562 27.9661 22.9375 27.8984C22.6823 27.8255 22.4531 27.7396 22.25 27.6406ZM30.125 21.2266H29.1016C29.0964 21.1693 29.0911 21.1068 29.0859 21.0391C29.0807 20.9818 29.0755 20.9141 29.0703 20.8359C29.0703 20.7578 29.0703 20.6719 29.0703 20.5781C29.0703 20.4844 29.0729 20.3984 29.0781 20.3203C29.0833 20.237 29.0911 20.1354 29.1016 20.0156H30.125V18.7734L31.0234 17.7578H31.7188V20.0156H33.9297C33.9401 20.0677 33.9479 20.1302 33.9531 20.2031C33.9635 20.276 33.9688 20.3464 33.9688 20.4141C33.9688 20.5339 33.9557 20.6432 33.9297 20.7422C33.9089 20.8411 33.8854 20.9271 33.8594 21C33.8281 21.0833 33.7917 21.1589 33.75 21.2266H31.7188V25.7578C31.7188 26.138 31.7812 26.4141 31.9062 26.5859C32.0365 26.7578 32.2422 26.8438 32.5234 26.8438C32.6432 26.8438 32.7682 26.8307 32.8984 26.8047C33.0339 26.7734 33.1615 26.737 33.2812 26.6953C33.4167 26.6484 33.5547 26.5964 33.6953 26.5391C33.7995 26.6745 33.8802 26.8073 33.9375 26.9375C34 27.0677 34.0443 27.1849 34.0703 27.2891C34.1016 27.4089 34.1198 27.5208 34.125 27.625C33.9792 27.724 33.8151 27.8125 33.6328 27.8906C33.4714 27.9583 33.2786 28.0182 33.0547 28.0703C32.8307 28.1276 32.5729 28.1562 32.2812 28.1562C31.875 28.1562 31.5339 28.1042 31.2578 28C30.987 27.901 30.7656 27.7526 30.5938 27.5547C30.4271 27.3516 30.3073 27.1016 30.2344 26.8047C30.1615 26.5026 30.125 26.1562 30.125 25.7656V21.2266ZM35.1172 24.0859C35.1172 23.3359 35.2083 22.6901 35.3906 22.1484C35.5729 21.6068 35.8281 21.1615 36.1562 20.8125C36.4844 20.4635 36.875 20.2083 37.3281 20.0469C37.7865 19.8802 38.2891 19.7969 38.8359 19.7969C39.3411 19.7969 39.7917 19.8828 40.1875 20.0547C40.5885 20.2214 40.9271 20.4583 41.2031 20.7656C41.4792 21.0729 41.6901 21.4401 41.8359 21.8672C41.9818 22.2943 42.0547 22.7656 42.0547 23.2812C42.0547 23.4583 42.0469 23.6224 42.0312 23.7734C42.0156 23.9245 41.9974 24.0547 41.9766 24.1641C41.9557 24.2943 41.9323 24.4115 41.9062 24.5156L36.7812 24.4922C36.7865 24.9557 36.8359 25.3411 36.9297 25.6484C37.0234 25.9505 37.1615 26.1901 37.3438 26.3672C37.5312 26.5443 37.7656 26.6693 38.0469 26.7422C38.3281 26.8099 38.6615 26.8438 39.0469 26.8438C39.375 26.8438 39.6693 26.8229 39.9297 26.7812C40.1901 26.7396 40.4115 26.6901 40.5938 26.6328C40.8021 26.5703 40.9896 26.4974 41.1562 26.4141C41.2344 26.5964 41.2943 26.7656 41.3359 26.9219C41.3828 27.0781 41.4167 27.2135 41.4375 27.3281C41.4583 27.4635 41.474 27.5833 41.4844 27.6875C41.3125 27.776 41.1042 27.8542 40.8594 27.9219C40.651 27.9792 40.3958 28.0312 40.0938 28.0781C39.7917 28.1302 39.4427 28.1562 39.0469 28.1562C38.4219 28.1562 37.8646 28.0859 37.375 27.9453C36.8906 27.8047 36.4792 27.5755 36.1406 27.2578C35.8073 26.9349 35.5521 26.5156 35.375 26C35.2031 25.4792 35.1172 24.8411 35.1172 24.0859ZM40.3828 23.3516V23.0859C40.3828 22.7578 40.3411 22.4688 40.2578 22.2188C40.1797 21.9635 40.0703 21.75 39.9297 21.5781C39.7891 21.4062 39.6224 21.276 39.4297 21.1875C39.237 21.099 39.0286 21.0547 38.8047 21.0547C38.4766 21.0547 38.1875 21.099 37.9375 21.1875C37.6875 21.2708 37.4766 21.4062 37.3047 21.5938C37.138 21.776 37.013 22.013 36.9297 22.3047C36.8464 22.5964 36.8047 22.9453 36.8047 23.3516H40.3828ZM43.2891 24.1484C43.2891 23.4036 43.3932 22.7578 43.6016 22.2109C43.8099 21.6641 44.0911 21.2109 44.4453 20.8516C44.8047 20.4922 45.2188 20.2266 45.6875 20.0547C46.1562 19.8776 46.6536 19.7891 47.1797 19.7891C47.3776 19.7891 47.5547 19.7995 47.7109 19.8203C47.8672 19.8359 48 19.8568 48.1094 19.8828C48.2396 19.9089 48.3542 19.9401 48.4531 19.9766V16.7578H50.1172V26.7109L50.8047 27.5078V28H49.2422L48.7031 27.3828H48.4375C48.4115 27.4089 48.3568 27.4635 48.2734 27.5469C48.1953 27.6302 48.0807 27.7161 47.9297 27.8047C47.7839 27.8932 47.6016 27.974 47.3828 28.0469C47.1693 28.1198 46.9167 28.1562 46.625 28.1562C46.2396 28.1562 45.849 28.0781 45.4531 27.9219C45.0573 27.7656 44.6979 27.5234 44.375 27.1953C44.0573 26.8672 43.7969 26.4531 43.5938 25.9531C43.3906 25.4479 43.2891 24.8464 43.2891 24.1484ZM45.0391 24.1484C45.0391 24.6328 45.0885 25.0469 45.1875 25.3906C45.2917 25.7344 45.4375 26.0182 45.625 26.2422C45.8125 26.4609 46.0417 26.6224 46.3125 26.7266C46.5833 26.8255 46.888 26.875 47.2266 26.875C47.3568 26.875 47.4948 26.8542 47.6406 26.8125C47.7865 26.7708 47.9193 26.7214 48.0391 26.6641C48.1797 26.6068 48.3177 26.5365 48.4531 26.4531V21.1719C48.3854 21.1302 48.2839 21.0885 48.1484 21.0469C48.0182 21.0052 47.8359 20.9844 47.6016 20.9844C46.7839 20.9844 46.151 21.2552 45.7031 21.7969C45.2604 22.3333 45.0391 23.1172 45.0391 24.1484ZM56.9062 17.3906H59.7109L62.3906 24.0156L63.4609 27.0312L63.3594 24.0156L63.3047 17.3906H64.9922V28H62.2578L59.5156 21.3594L58.4453 18.2969L58.5469 21.3594L58.6016 28H56.9062V17.3906ZM67.4688 17.3906H73.5547C73.5547 17.4271 73.5573 17.4661 73.5625 17.5078C73.5677 17.5443 73.5703 17.5859 73.5703 17.6328C73.5755 17.6745 73.5781 17.7214 73.5781 17.7734C73.5781 17.862 73.5599 17.9974 73.5234 18.1797C73.4922 18.3568 73.4193 18.5625 73.3047 18.7969C72.8776 18.7812 72.4349 18.7656 71.9766 18.75C71.5859 18.7396 71.1484 18.7292 70.6641 18.7188C70.1849 18.7031 69.7109 18.6953 69.2422 18.6953V22.1562C69.3828 22.1562 69.5469 22.1562 69.7344 22.1562C69.9219 22.151 70.1198 22.1458 70.3281 22.1406C70.5365 22.1354 70.75 22.1302 70.9688 22.125C71.1927 22.1146 71.4089 22.1068 71.6172 22.1016C72.1068 22.0859 72.6172 22.0703 73.1484 22.0547C73.1484 22.0964 73.151 22.1406 73.1562 22.1875C73.1615 22.2292 73.1641 22.2786 73.1641 22.3359C73.1693 22.388 73.1719 22.4427 73.1719 22.5C73.1719 22.5469 73.1589 22.6458 73.1328 22.7969C73.112 22.9479 73.0599 23.1641 72.9766 23.4453C72.4245 23.4453 71.9036 23.4427 71.4141 23.4375C71.2057 23.4375 70.9922 23.4375 70.7734 23.4375C70.5599 23.4375 70.3568 23.4375 70.1641 23.4375C69.9714 23.4323 69.7943 23.4297 69.6328 23.4297C69.4714 23.4297 69.3411 23.4297 69.2422 23.4297V28H67.4688V17.3906ZM76.8125 18.7031C76.4219 18.7083 76.0677 18.7135 75.75 18.7188C75.4375 18.724 75.1693 18.7318 74.9453 18.7422C74.6849 18.7526 74.4531 18.763 74.25 18.7734C74.2396 18.7109 74.2318 18.6484 74.2266 18.5859C74.2109 18.4766 74.2031 18.3411 74.2031 18.1797C74.2031 18.0859 74.2083 17.974 74.2188 17.8438C74.2344 17.7083 74.2604 17.5573 74.2969 17.3906H81.25C81.2552 17.4427 81.2604 17.4974 81.2656 17.5547C81.2708 17.6016 81.276 17.6562 81.2812 17.7188C81.2865 17.776 81.2891 17.8333 81.2891 17.8906C81.2891 17.9948 81.2786 18.1302 81.2578 18.2969C81.2422 18.4635 81.2109 18.6198 81.1641 18.7656C81.1224 18.7604 81.013 18.7552 80.8359 18.75C80.6641 18.7396 80.4557 18.7318 80.2109 18.7266C79.9661 18.7214 79.7005 18.7161 79.4141 18.7109C79.1276 18.7057 78.849 18.7031 78.5781 18.7031V28H76.8125V18.7031ZM87.3984 17.3906H90.0625L91.5938 22.6875L92.1641 24.9688L92.7344 22.6875L94.2266 17.3906H96.8906L97.4688 28H95.7734L95.4531 20.3281L95.4922 18.2734C95.3724 18.6328 95.2474 19.0286 95.1172 19.4609C94.9922 19.8932 94.862 20.3438 94.7266 20.8125C94.5964 21.276 94.4635 21.75 94.3281 22.2344C94.1979 22.7135 94.0651 23.1875 93.9297 23.6562C93.7995 24.1198 93.6693 24.5677 93.5391 25C93.4141 25.4271 93.2917 25.8177 93.1719 26.1719H91.1641L88.7734 18.25L88.8047 20.3594L88.5391 28H86.8438L87.3984 17.3906ZM98.7969 25.7188C98.7969 25.2865 98.8594 24.9193 98.9844 24.6172C99.1094 24.3151 99.2917 24.0677 99.5312 23.875C99.776 23.6823 100.07 23.5391 100.414 23.4453C100.763 23.3464 101.161 23.2839 101.609 23.2578L103.352 23.1641V22.5391C103.352 22.2578 103.326 22.026 103.273 21.8438C103.227 21.6615 103.146 21.5156 103.031 21.4062C102.917 21.2969 102.763 21.2214 102.57 21.1797C102.383 21.1328 102.148 21.1094 101.867 21.1094C101.586 21.1094 101.318 21.1406 101.062 21.2031C100.812 21.2656 100.594 21.3333 100.406 21.4062C100.182 21.4948 99.9766 21.5938 99.7891 21.7031C99.6745 21.5417 99.5833 21.388 99.5156 21.2422C99.4479 21.0911 99.3958 20.9557 99.3594 20.8359C99.3125 20.7005 99.2812 20.5703 99.2656 20.4453C99.5156 20.3203 99.7839 20.2109 100.07 20.1172C100.32 20.0339 100.607 19.9583 100.93 19.8906C101.258 19.8229 101.602 19.7891 101.961 19.7891C102.555 19.7891 103.047 19.8411 103.438 19.9453C103.828 20.0495 104.138 20.2083 104.367 20.4219C104.602 20.6302 104.763 20.8958 104.852 21.2188C104.945 21.5365 104.992 21.9141 104.992 22.3516V26.7109L105.648 27.5078V28H104.203L103.602 27.3047H103.32C103.294 27.3307 103.224 27.3906 103.109 27.4844C103 27.5729 102.857 27.6693 102.68 27.7734C102.508 27.8724 102.31 27.9609 102.086 28.0391C101.867 28.1172 101.633 28.1562 101.383 28.1562C100.992 28.1562 100.638 28.099 100.32 27.9844C100.003 27.8646 99.7292 27.6979 99.5 27.4844C99.276 27.2656 99.1016 27.0078 98.9766 26.7109C98.8568 26.4089 98.7969 26.0781 98.7969 25.7188ZM100.5 25.5781C100.5 25.8177 100.534 26.0182 100.602 26.1797C100.669 26.3359 100.763 26.4609 100.883 26.5547C101.008 26.6484 101.156 26.7135 101.328 26.75C101.505 26.7865 101.701 26.8047 101.914 26.8047C102.112 26.8047 102.297 26.7812 102.469 26.7344C102.646 26.6823 102.799 26.625 102.93 26.5625C103.081 26.4948 103.221 26.4141 103.352 26.3203V24.2188L101.781 24.3203C101.536 24.3359 101.331 24.3776 101.164 24.4453C101.003 24.513 100.872 24.6016 100.773 24.7109C100.674 24.8203 100.604 24.9505 100.562 25.1016C100.521 25.2474 100.5 25.4062 100.5 25.5781ZM108.109 19.9297L108.914 20.7734C108.971 20.6432 109.044 20.5208 109.133 20.4062C109.227 20.2865 109.333 20.1823 109.453 20.0938C109.578 20.0052 109.716 19.9349 109.867 19.8828C110.023 19.8307 110.193 19.8047 110.375 19.8047C110.526 19.8047 110.672 19.8177 110.812 19.8438C110.953 19.8646 111.107 19.9036 111.273 19.9609C111.279 19.9714 111.284 20.013 111.289 20.0859C111.299 20.1589 111.305 20.25 111.305 20.3594C111.305 20.4427 111.299 20.5417 111.289 20.6562C111.279 20.7656 111.26 20.8802 111.234 21C111.214 21.1146 111.18 21.2292 111.133 21.3438C111.091 21.4583 111.036 21.5573 110.969 21.6406L110.82 21.6797C110.716 21.6276 110.599 21.5833 110.469 21.5469C110.344 21.5104 110.214 21.4922 110.078 21.4922C109.87 21.4922 109.695 21.5078 109.555 21.5391C109.414 21.5651 109.299 21.5938 109.211 21.625C109.107 21.6615 109.023 21.7031 108.961 21.75V28H107.289V21.4453L106.672 20.8125V19.9297H108.109ZM112.594 16.75H114.188V22.6953L114.109 23.8281L114.523 23.3359L117.031 20.0156H118.922L116.383 23.2344L115.734 23.8516L116.242 24.3125L119.062 28H117.164L114.477 24.3906L114.109 23.9219L114.188 25.3438V28H112.594V16.75ZM119.836 24.0859C119.836 23.3359 119.927 22.6901 120.109 22.1484C120.292 21.6068 120.547 21.1615 120.875 20.8125C121.203 20.4635 121.594 20.2083 122.047 20.0469C122.505 19.8802 123.008 19.7969 123.555 19.7969C124.06 19.7969 124.51 19.8828 124.906 20.0547C125.307 20.2214 125.646 20.4583 125.922 20.7656C126.198 21.0729 126.409 21.4401 126.555 21.8672C126.701 22.2943 126.773 22.7656 126.773 23.2812C126.773 23.4583 126.766 23.6224 126.75 23.7734C126.734 23.9245 126.716 24.0547 126.695 24.1641C126.674 24.2943 126.651 24.4115 126.625 24.5156L121.5 24.4922C121.505 24.9557 121.555 25.3411 121.648 25.6484C121.742 25.9505 121.88 26.1901 122.062 26.3672C122.25 26.5443 122.484 26.6693 122.766 26.7422C123.047 26.8099 123.38 26.8438 123.766 26.8438C124.094 26.8438 124.388 26.8229 124.648 26.7812C124.909 26.7396 125.13 26.6901 125.312 26.6328C125.521 26.5703 125.708 26.4974 125.875 26.4141C125.953 26.5964 126.013 26.7656 126.055 26.9219C126.102 27.0781 126.135 27.2135 126.156 27.3281C126.177 27.4635 126.193 27.5833 126.203 27.6875C126.031 27.776 125.823 27.8542 125.578 27.9219C125.37 27.9792 125.115 28.0312 124.812 28.0781C124.51 28.1302 124.161 28.1562 123.766 28.1562C123.141 28.1562 122.583 28.0859 122.094 27.9453C121.609 27.8047 121.198 27.5755 120.859 27.2578C120.526 26.9349 120.271 26.5156 120.094 26C119.922 25.4792 119.836 24.8411 119.836 24.0859ZM125.102 23.3516V23.0859C125.102 22.7578 125.06 22.4688 124.977 22.2188C124.898 21.9635 124.789 21.75 124.648 21.5781C124.508 21.4062 124.341 21.276 124.148 21.1875C123.956 21.099 123.747 21.0547 123.523 21.0547C123.195 21.0547 122.906 21.099 122.656 21.1875C122.406 21.2708 122.195 21.4062 122.023 21.5938C121.857 21.776 121.732 22.013 121.648 22.3047C121.565 22.5964 121.523 22.9453 121.523 23.3516H125.102ZM128.812 21.2266H127.789C127.784 21.1693 127.779 21.1068 127.773 21.0391C127.768 20.9818 127.763 20.9141 127.758 20.8359C127.758 20.7578 127.758 20.6719 127.758 20.5781C127.758 20.4844 127.76 20.3984 127.766 20.3203C127.771 20.237 127.779 20.1354 127.789 20.0156H128.812V18.7734L129.711 17.7578H130.406V20.0156H132.617C132.628 20.0677 132.635 20.1302 132.641 20.2031C132.651 20.276 132.656 20.3464 132.656 20.4141C132.656 20.5339 132.643 20.6432 132.617 20.7422C132.596 20.8411 132.573 20.9271 132.547 21C132.516 21.0833 132.479 21.1589 132.438 21.2266H130.406V25.7578C130.406 26.138 130.469 26.4141 130.594 26.5859C130.724 26.7578 130.93 26.8438 131.211 26.8438C131.331 26.8438 131.456 26.8307 131.586 26.8047C131.721 26.7734 131.849 26.737 131.969 26.6953C132.104 26.6484 132.242 26.5964 132.383 26.5391C132.487 26.6745 132.568 26.8073 132.625 26.9375C132.688 27.0677 132.732 27.1849 132.758 27.2891C132.789 27.4089 132.807 27.5208 132.812 27.625C132.667 27.724 132.503 27.8125 132.32 27.8906C132.159 27.9583 131.966 28.0182 131.742 28.0703C131.518 28.1276 131.26 28.1562 130.969 28.1562C130.562 28.1562 130.221 28.1042 129.945 28C129.674 27.901 129.453 27.7526 129.281 27.5547C129.115 27.3516 128.995 27.1016 128.922 26.8047C128.849 26.5026 128.812 26.1562 128.812 25.7656V21.2266ZM135.914 31.1641H134.242V21.0547L133.625 20.4219V19.9297H135.055L135.672 20.4688L135.961 20.4844C135.992 20.4531 136.06 20.401 136.164 20.3281C136.273 20.25 136.417 20.1719 136.594 20.0938C136.771 20.0104 136.982 19.9401 137.227 19.8828C137.471 19.8203 137.745 19.7891 138.047 19.7891C138.432 19.7891 138.807 19.8516 139.172 19.9766C139.542 20.1016 139.867 20.3177 140.148 20.625C140.435 20.9323 140.664 21.349 140.836 21.875C141.008 22.3958 141.094 23.0547 141.094 23.8516C141.094 24.5391 140.987 25.151 140.773 25.6875C140.565 26.224 140.284 26.6745 139.93 27.0391C139.576 27.4036 139.161 27.6823 138.688 27.875C138.219 28.0625 137.724 28.1562 137.203 28.1562C137.068 28.1562 136.922 28.151 136.766 28.1406C136.615 28.1302 136.477 28.1172 136.352 28.1016C136.201 28.0859 136.055 28.0677 135.914 28.0469V31.1641ZM135.914 26.8438C136.003 26.8698 136.122 26.8932 136.273 26.9141C136.424 26.9349 136.591 26.9453 136.773 26.9453C137.164 26.9453 137.518 26.8724 137.836 26.7266C138.154 26.5755 138.422 26.3672 138.641 26.1016C138.865 25.8307 139.036 25.5052 139.156 25.125C139.281 24.7448 139.344 24.3203 139.344 23.8516C139.344 23.2734 139.292 22.8047 139.188 22.4453C139.089 22.0807 138.943 21.7969 138.75 21.5938C138.562 21.3854 138.333 21.2448 138.062 21.1719C137.792 21.099 137.49 21.0625 137.156 21.0625C137.01 21.0625 136.865 21.0859 136.719 21.1328C136.573 21.1745 136.44 21.224 136.32 21.2812C136.18 21.3438 136.044 21.4141 135.914 21.4922V26.8438ZM142.688 16.7578H144.305V26.6875L144.766 27.0156V28H144.32L144.305 27.9844V28C143.789 28 143.391 27.8958 143.109 27.6875C142.828 27.4792 142.688 27.1354 142.688 26.6562V16.7578ZM146 25.7188C146 25.2865 146.062 24.9193 146.188 24.6172C146.312 24.3151 146.495 24.0677 146.734 23.875C146.979 23.6823 147.273 23.5391 147.617 23.4453C147.966 23.3464 148.365 23.2839 148.812 23.2578L150.555 23.1641V22.5391C150.555 22.2578 150.529 22.026 150.477 21.8438C150.43 21.6615 150.349 21.5156 150.234 21.4062C150.12 21.2969 149.966 21.2214 149.773 21.1797C149.586 21.1328 149.352 21.1094 149.07 21.1094C148.789 21.1094 148.521 21.1406 148.266 21.2031C148.016 21.2656 147.797 21.3333 147.609 21.4062C147.385 21.4948 147.18 21.5938 146.992 21.7031C146.878 21.5417 146.786 21.388 146.719 21.2422C146.651 21.0911 146.599 20.9557 146.562 20.8359C146.516 20.7005 146.484 20.5703 146.469 20.4453C146.719 20.3203 146.987 20.2109 147.273 20.1172C147.523 20.0339 147.81 19.9583 148.133 19.8906C148.461 19.8229 148.805 19.7891 149.164 19.7891C149.758 19.7891 150.25 19.8411 150.641 19.9453C151.031 20.0495 151.341 20.2083 151.57 20.4219C151.805 20.6302 151.966 20.8958 152.055 21.2188C152.148 21.5365 152.195 21.9141 152.195 22.3516V26.7109L152.852 27.5078V28H151.406L150.805 27.3047H150.523C150.497 27.3307 150.427 27.3906 150.312 27.4844C150.203 27.5729 150.06 27.6693 149.883 27.7734C149.711 27.8724 149.513 27.9609 149.289 28.0391C149.07 28.1172 148.836 28.1562 148.586 28.1562C148.195 28.1562 147.841 28.099 147.523 27.9844C147.206 27.8646 146.932 27.6979 146.703 27.4844C146.479 27.2656 146.305 27.0078 146.18 26.7109C146.06 26.4089 146 26.0781 146 25.7188ZM147.703 25.5781C147.703 25.8177 147.737 26.0182 147.805 26.1797C147.872 26.3359 147.966 26.4609 148.086 26.5547C148.211 26.6484 148.359 26.7135 148.531 26.75C148.708 26.7865 148.904 26.8047 149.117 26.8047C149.315 26.8047 149.5 26.7812 149.672 26.7344C149.849 26.6823 150.003 26.625 150.133 26.5625C150.284 26.4948 150.424 26.4141 150.555 26.3203V24.2188L148.984 24.3203C148.74 24.3359 148.534 24.3776 148.367 24.4453C148.206 24.513 148.076 24.6016 147.977 24.7109C147.878 24.8203 147.807 24.9505 147.766 25.1016C147.724 25.2474 147.703 25.4062 147.703 25.5781ZM153.867 23.9922C153.867 23.3047 153.951 22.7005 154.117 22.1797C154.284 21.6536 154.526 21.2135 154.844 20.8594C155.167 20.5052 155.56 20.2396 156.023 20.0625C156.492 19.8802 157.026 19.7891 157.625 19.7891C157.844 19.7891 158.065 19.8099 158.289 19.8516C158.513 19.8932 158.716 19.9375 158.898 19.9844C159.107 20.0417 159.31 20.1068 159.508 20.1797C159.492 20.3255 159.469 20.4766 159.438 20.6328C159.411 20.7682 159.372 20.9167 159.32 21.0781C159.273 21.2344 159.214 21.388 159.141 21.5391C159 21.4818 158.849 21.4271 158.688 21.375C158.547 21.3333 158.385 21.2943 158.203 21.2578C158.021 21.2214 157.828 21.2031 157.625 21.2031C157.276 21.2031 156.971 21.2682 156.711 21.3984C156.456 21.5234 156.242 21.7083 156.07 21.9531C155.898 22.1927 155.771 22.4844 155.688 22.8281C155.604 23.1719 155.562 23.5573 155.562 23.9844C155.562 24.9219 155.742 25.6328 156.102 26.1172C156.466 26.6016 157 26.8438 157.703 26.8438C157.911 26.8438 158.109 26.8281 158.297 26.7969C158.484 26.7604 158.654 26.7214 158.805 26.6797C158.977 26.6276 159.138 26.5703 159.289 26.5078C159.341 26.6224 159.388 26.7474 159.43 26.8828C159.466 27.0026 159.497 27.1406 159.523 27.2969C159.555 27.4479 159.568 27.612 159.562 27.7891C159.37 27.8568 159.169 27.9193 158.961 27.9766C158.784 28.0234 158.583 28.0651 158.359 28.1016C158.141 28.138 157.922 28.1562 157.703 28.1562C156.479 28.1562 155.534 27.8073 154.867 27.1094C154.201 26.4115 153.867 25.3724 153.867 23.9922ZM160.555 24.0859C160.555 23.3359 160.646 22.6901 160.828 22.1484C161.01 21.6068 161.266 21.1615 161.594 20.8125C161.922 20.4635 162.312 20.2083 162.766 20.0469C163.224 19.8802 163.727 19.7969 164.273 19.7969C164.779 19.7969 165.229 19.8828 165.625 20.0547C166.026 20.2214 166.365 20.4583 166.641 20.7656C166.917 21.0729 167.128 21.4401 167.273 21.8672C167.419 22.2943 167.492 22.7656 167.492 23.2812C167.492 23.4583 167.484 23.6224 167.469 23.7734C167.453 23.9245 167.435 24.0547 167.414 24.1641C167.393 24.2943 167.37 24.4115 167.344 24.5156L162.219 24.4922C162.224 24.9557 162.273 25.3411 162.367 25.6484C162.461 25.9505 162.599 26.1901 162.781 26.3672C162.969 26.5443 163.203 26.6693 163.484 26.7422C163.766 26.8099 164.099 26.8438 164.484 26.8438C164.812 26.8438 165.107 26.8229 165.367 26.7812C165.628 26.7396 165.849 26.6901 166.031 26.6328C166.24 26.5703 166.427 26.4974 166.594 26.4141C166.672 26.5964 166.732 26.7656 166.773 26.9219C166.82 27.0781 166.854 27.2135 166.875 27.3281C166.896 27.4635 166.911 27.5833 166.922 27.6875C166.75 27.776 166.542 27.8542 166.297 27.9219C166.089 27.9792 165.833 28.0312 165.531 28.0781C165.229 28.1302 164.88 28.1562 164.484 28.1562C163.859 28.1562 163.302 28.0859 162.812 27.9453C162.328 27.8047 161.917 27.5755 161.578 27.2578C161.245 26.9349 160.99 26.5156 160.812 26C160.641 25.4792 160.555 24.8411 160.555 24.0859ZM165.82 23.3516V23.0859C165.82 22.7578 165.779 22.4688 165.695 22.2188C165.617 21.9635 165.508 21.75 165.367 21.5781C165.227 21.4062 165.06 21.276 164.867 21.1875C164.674 21.099 164.466 21.0547 164.242 21.0547C163.914 21.0547 163.625 21.099 163.375 21.1875C163.125 21.2708 162.914 21.4062 162.742 21.5938C162.576 21.776 162.451 22.013 162.367 22.3047C162.284 22.5964 162.242 22.9453 162.242 23.3516H165.82Z" fill="white"/>
</svg>
